G04 #@! TF.GenerationSoftware,KiCad,Pcbnew,6.0.0-rc1-unknown-1088786~66~ubuntu16.04.1*
G04 #@! TF.CreationDate,2018-12-29T10:22:54+01:00
G04 #@! TF.ProjectId,audi_concert1_chorus1_volume_fix,61756469-5f63-46f6-9e63-657274315f63,rev?*
G04 #@! TF.SameCoordinates,Original*
G04 #@! TF.FileFunction,Paste,Top*
G04 #@! TF.FilePolarity,Positive*
%FSLAX46Y46*%
G04 Gerber Fmt 4.6, Leading zero omitted, Abs format (unit mm)*
G04 Created by KiCad (PCBNEW 6.0.0-rc1-unknown-1088786~66~ubuntu16.04.1) date So 29. december 2018, 10:22:54 CET*
%MOMM*%
%LPD*%
G04 APERTURE LIST*
%ADD10R,1.500000X1.300000*%
%ADD11R,0.250000X1.300000*%
%ADD12R,1.300000X0.250000*%
%ADD13R,1.800860X1.597660*%
%ADD14R,1.600000X2.000000*%
%ADD15R,1.300000X1.500000*%
%ADD16R,1.250000X1.500000*%
%ADD17R,1.500000X1.250000*%
%ADD18R,1.800000X1.000000*%
%ADD19R,1.300000X1.600000*%
%ADD20R,2.150000X3.250000*%
%ADD21R,2.150000X0.950000*%
G04 APERTURE END LIST*
D10*
X191465200Y-109829600D03*
X188765200Y-109829600D03*
D11*
X177958300Y-101656900D03*
X178458300Y-101656900D03*
X178958300Y-101656900D03*
X179458300Y-101656900D03*
X179958300Y-101656900D03*
X180458300Y-101656900D03*
X180958300Y-101656900D03*
X181458300Y-101656900D03*
X181958300Y-101656900D03*
X182458300Y-101656900D03*
X182958300Y-101656900D03*
X183458300Y-101656900D03*
D12*
X185058300Y-103256900D03*
X185058300Y-103756900D03*
X185058300Y-104256900D03*
X185058300Y-104756900D03*
X185058300Y-105256900D03*
X185058300Y-105756900D03*
X185058300Y-106256900D03*
X185058300Y-106756900D03*
X185058300Y-107256900D03*
X185058300Y-107756900D03*
X185058300Y-108256900D03*
X185058300Y-108756900D03*
D11*
X183458300Y-110356900D03*
X182958300Y-110356900D03*
X182458300Y-110356900D03*
X181958300Y-110356900D03*
X181458300Y-110356900D03*
X180958300Y-110356900D03*
X180458300Y-110356900D03*
X179958300Y-110356900D03*
X179458300Y-110356900D03*
X178958300Y-110356900D03*
X178458300Y-110356900D03*
X177958300Y-110356900D03*
D12*
X176358300Y-108756900D03*
X176358300Y-108256900D03*
X176358300Y-107756900D03*
X176358300Y-107256900D03*
X176358300Y-106756900D03*
X176358300Y-106256900D03*
X176358300Y-105756900D03*
X176358300Y-105256900D03*
X176358300Y-104756900D03*
X176358300Y-104256900D03*
X176358300Y-103756900D03*
X176358300Y-103256900D03*
D13*
X194437000Y-106961940D03*
X194437000Y-109801660D03*
D14*
X176834800Y-113189000D03*
X176834800Y-117189000D03*
D15*
X174269400Y-117250200D03*
X174269400Y-114550200D03*
X185724800Y-116945400D03*
X185724800Y-114245400D03*
X182930800Y-114249200D03*
X182930800Y-116949200D03*
D10*
X191465200Y-105689400D03*
X188765200Y-105689400D03*
X191443600Y-103606600D03*
X188743600Y-103606600D03*
X188819800Y-99339400D03*
X191519800Y-99339400D03*
D15*
X186461400Y-98000800D03*
X186461400Y-95300800D03*
X182219600Y-95322400D03*
X182219600Y-98022400D03*
D10*
X191503280Y-97200720D03*
X188803280Y-97200720D03*
X191488040Y-95087440D03*
X188788040Y-95087440D03*
X188743600Y-101523800D03*
X191443600Y-101523800D03*
D16*
X175260000Y-97877000D03*
X175260000Y-95377000D03*
X170220640Y-97678880D03*
X170220640Y-95178880D03*
D17*
X169125900Y-100482400D03*
X171625900Y-100482400D03*
X169077000Y-108521500D03*
X171577000Y-108521500D03*
X171582400Y-110744000D03*
X169082400Y-110744000D03*
D16*
X177457100Y-97871600D03*
X177457100Y-95371600D03*
D10*
X191465200Y-107772200D03*
X188765200Y-107772200D03*
X191447400Y-112039400D03*
X188747400Y-112039400D03*
X191443600Y-118262400D03*
X188743600Y-118262400D03*
X188743600Y-116179600D03*
X191443600Y-116179600D03*
X191447400Y-114096800D03*
X188747400Y-114096800D03*
D15*
X173228000Y-105841800D03*
X173228000Y-103141800D03*
D18*
X172707300Y-95313500D03*
X172707300Y-97813500D03*
D19*
X170960800Y-102821200D03*
X170960800Y-106121200D03*
X168960800Y-106121200D03*
X168960800Y-102821200D03*
D15*
X184353200Y-95297000D03*
X184353200Y-97997000D03*
D20*
X165603600Y-115341400D03*
D21*
X171403600Y-117641400D03*
X171403600Y-115341400D03*
X171403600Y-113041400D03*
M02*
