G04 #@! TF.GenerationSoftware,KiCad,Pcbnew,6.0.0-rc1-unknown-1088786~66~ubuntu16.04.1*
G04 #@! TF.CreationDate,2018-12-29T10:22:54+01:00
G04 #@! TF.ProjectId,audi_concert1_chorus1_volume_fix,61756469-5f63-46f6-9e63-657274315f63,rev?*
G04 #@! TF.SameCoordinates,Original*
G04 #@! TF.FileFunction,Legend,Bot*
G04 #@! TF.FilePolarity,Positive*
%FSLAX46Y46*%
G04 Gerber Fmt 4.6, Leading zero omitted, Abs format (unit mm)*
G04 Created by KiCad (PCBNEW 6.0.0-rc1-unknown-1088786~66~ubuntu16.04.1) date So 29. december 2018, 10:22:54 CET*
%MOMM*%
%LPD*%
G04 APERTURE LIST*
%ADD10C,0.150000*%
G04 APERTURE END LIST*
D10*
X167254601Y-116865400D02*
X167254601Y-94005400D01*
X169794601Y-119405400D02*
X192654601Y-119405400D01*
X169794601Y-119405400D02*
X167254601Y-116865400D01*
X192654601Y-94005400D02*
X192654601Y-119405400D01*
X167254601Y-94005400D02*
X192654601Y-94005400D01*
X172334601Y-112420400D02*
X172334601Y-99085400D01*
X174239601Y-114325400D02*
X172334601Y-112420400D01*
X187574601Y-114325400D02*
X174239601Y-114325400D01*
X187574601Y-99085400D02*
X187574601Y-114325400D01*
X172334601Y-99085400D02*
X187574601Y-99085400D01*
X180970505Y-101077780D02*
X180970505Y-101887304D01*
X180922886Y-101982542D01*
X180875267Y-102030161D01*
X180780029Y-102077780D01*
X180589553Y-102077780D01*
X180494315Y-102030161D01*
X180446696Y-101982542D01*
X180399077Y-101887304D01*
X180399077Y-101077780D01*
X179399077Y-102077780D02*
X179970505Y-102077780D01*
X179684791Y-102077780D02*
X179684791Y-101077780D01*
X179780029Y-101220638D01*
X179875267Y-101315876D01*
X179970505Y-101363495D01*
X172556886Y-107157780D02*
X173128315Y-107157780D01*
X172842601Y-107157780D02*
X172842601Y-106157780D01*
X172937839Y-106300638D01*
X173033077Y-106395876D01*
X173128315Y-106443495D01*
M02*
