G04 #@! TF.GenerationSoftware,KiCad,Pcbnew,6.0.0-rc1-unknown-1088786~66~ubuntu16.04.1*
G04 #@! TF.CreationDate,2018-12-29T10:22:54+01:00
G04 #@! TF.ProjectId,audi_concert1_chorus1_volume_fix,61756469-5f63-46f6-9e63-657274315f63,rev?*
G04 #@! TF.SameCoordinates,Original*
G04 #@! TF.FileFunction,Copper,L1,Top*
G04 #@! TF.FilePolarity,Positive*
%FSLAX46Y46*%
G04 Gerber Fmt 4.6, Leading zero omitted, Abs format (unit mm)*
G04 Created by KiCad (PCBNEW 6.0.0-rc1-unknown-1088786~66~ubuntu16.04.1) date So 29. december 2018, 10:22:54 CET*
%MOMM*%
%LPD*%
G04 APERTURE LIST*
%ADD10R,1.500000X1.300000*%
%ADD11R,0.250000X1.300000*%
%ADD12R,1.300000X0.250000*%
%ADD13R,1.800860X1.597660*%
%ADD14R,1.600000X2.000000*%
%ADD15R,1.300000X1.500000*%
%ADD16R,1.250000X1.500000*%
%ADD17R,1.500000X1.250000*%
%ADD18R,2.032000X2.032000*%
%ADD19O,2.032000X2.032000*%
%ADD20R,2.032000X1.727200*%
%ADD21O,2.032000X1.727200*%
%ADD22R,1.500000X0.500000*%
%ADD23C,0.050000*%
%ADD24C,1.000000*%
%ADD25R,1.500000X1.000000*%
%ADD26R,1.800000X1.000000*%
%ADD27R,1.300000X1.600000*%
%ADD28R,2.150000X3.250000*%
%ADD29R,2.150000X0.950000*%
%ADD30C,0.800000*%
%ADD31C,0.150000*%
%ADD32C,0.300000*%
%ADD33C,0.500000*%
%ADD34C,0.250000*%
%ADD35C,0.254000*%
G04 APERTURE END LIST*
D10*
X191465200Y-109829600D03*
X188765200Y-109829600D03*
D11*
X177958300Y-101656900D03*
X178458300Y-101656900D03*
X178958300Y-101656900D03*
X179458300Y-101656900D03*
X179958300Y-101656900D03*
X180458300Y-101656900D03*
X180958300Y-101656900D03*
X181458300Y-101656900D03*
X181958300Y-101656900D03*
X182458300Y-101656900D03*
X182958300Y-101656900D03*
X183458300Y-101656900D03*
D12*
X185058300Y-103256900D03*
X185058300Y-103756900D03*
X185058300Y-104256900D03*
X185058300Y-104756900D03*
X185058300Y-105256900D03*
X185058300Y-105756900D03*
X185058300Y-106256900D03*
X185058300Y-106756900D03*
X185058300Y-107256900D03*
X185058300Y-107756900D03*
X185058300Y-108256900D03*
X185058300Y-108756900D03*
D11*
X183458300Y-110356900D03*
X182958300Y-110356900D03*
X182458300Y-110356900D03*
X181958300Y-110356900D03*
X181458300Y-110356900D03*
X180958300Y-110356900D03*
X180458300Y-110356900D03*
X179958300Y-110356900D03*
X179458300Y-110356900D03*
X178958300Y-110356900D03*
X178458300Y-110356900D03*
X177958300Y-110356900D03*
D12*
X176358300Y-108756900D03*
X176358300Y-108256900D03*
X176358300Y-107756900D03*
X176358300Y-107256900D03*
X176358300Y-106756900D03*
X176358300Y-106256900D03*
X176358300Y-105756900D03*
X176358300Y-105256900D03*
X176358300Y-104756900D03*
X176358300Y-104256900D03*
X176358300Y-103756900D03*
X176358300Y-103256900D03*
D13*
X194437000Y-106961940D03*
X194437000Y-109801660D03*
D14*
X176834800Y-113189000D03*
X176834800Y-117189000D03*
D15*
X174269400Y-117250200D03*
X174269400Y-114550200D03*
X185724800Y-116945400D03*
X185724800Y-114245400D03*
X182930800Y-114249200D03*
X182930800Y-116949200D03*
D10*
X191465200Y-105689400D03*
X188765200Y-105689400D03*
X191443600Y-103606600D03*
X188743600Y-103606600D03*
X188819800Y-99339400D03*
X191519800Y-99339400D03*
D15*
X186461400Y-98000800D03*
X186461400Y-95300800D03*
X182219600Y-95322400D03*
X182219600Y-98022400D03*
D10*
X191503280Y-97200720D03*
X188803280Y-97200720D03*
X191488040Y-95087440D03*
X188788040Y-95087440D03*
X188743600Y-101523800D03*
X191443600Y-101523800D03*
D16*
X175260000Y-97877000D03*
X175260000Y-95377000D03*
X170220640Y-97678880D03*
X170220640Y-95178880D03*
D17*
X169125900Y-100482400D03*
X171625900Y-100482400D03*
X169077000Y-108521500D03*
X171577000Y-108521500D03*
X171582400Y-110744000D03*
X169082400Y-110744000D03*
D16*
X177457100Y-97871600D03*
X177457100Y-95371600D03*
D18*
X165633400Y-98171000D03*
D19*
X165633400Y-95631000D03*
D20*
X165633400Y-109499400D03*
D21*
X165633400Y-106959400D03*
X165633400Y-104419400D03*
X165633400Y-101879400D03*
D20*
X194614800Y-113004600D03*
D21*
X194614800Y-115544600D03*
X194614800Y-118084600D03*
X194335400Y-95580200D03*
X194335400Y-98120200D03*
X194335400Y-100660200D03*
D20*
X194335400Y-103200200D03*
D22*
X179806600Y-97545400D03*
D23*
G36*
X180105609Y-97347807D02*
G01*
X180154145Y-97355006D01*
X180201742Y-97366929D01*
X180247942Y-97383459D01*
X180292298Y-97404438D01*
X180334385Y-97429664D01*
X180373797Y-97458894D01*
X180410153Y-97491846D01*
X180443105Y-97528202D01*
X180472335Y-97567614D01*
X180497561Y-97609701D01*
X180518540Y-97654057D01*
X180535070Y-97700257D01*
X180546993Y-97747854D01*
X180554192Y-97796390D01*
X180556600Y-97845399D01*
X180556600Y-97845401D01*
X180554192Y-97894410D01*
X180546993Y-97942946D01*
X180535070Y-97990543D01*
X180518540Y-98036743D01*
X180497561Y-98081099D01*
X180472335Y-98123186D01*
X180443105Y-98162598D01*
X180410153Y-98198954D01*
X180373797Y-98231906D01*
X180334385Y-98261136D01*
X180292298Y-98286362D01*
X180247942Y-98307341D01*
X180201742Y-98323871D01*
X180154145Y-98335794D01*
X180105609Y-98342993D01*
X180056600Y-98345401D01*
X179556600Y-98345401D01*
X179507591Y-98342993D01*
X179459055Y-98335794D01*
X179411458Y-98323871D01*
X179365258Y-98307341D01*
X179320902Y-98286362D01*
X179278815Y-98261136D01*
X179239403Y-98231906D01*
X179203047Y-98198954D01*
X179170095Y-98162598D01*
X179140865Y-98123186D01*
X179115639Y-98081099D01*
X179094660Y-98036743D01*
X179078130Y-97990543D01*
X179066207Y-97942946D01*
X179059008Y-97894410D01*
X179056600Y-97845401D01*
X179056600Y-97845399D01*
X179059008Y-97796390D01*
X179066207Y-97747854D01*
X179078130Y-97700257D01*
X179094660Y-97654057D01*
X179115639Y-97609701D01*
X179140865Y-97567614D01*
X179170095Y-97528202D01*
X179203047Y-97491846D01*
X179239403Y-97458894D01*
X179278815Y-97429664D01*
X179320902Y-97404438D01*
X179365258Y-97383459D01*
X179411458Y-97366929D01*
X179459055Y-97355006D01*
X179507591Y-97347807D01*
X179556600Y-97345399D01*
X180056600Y-97345399D01*
X180105609Y-97347807D01*
X180105609Y-97347807D01*
G37*
D24*
X179806600Y-97845400D03*
D25*
X179806600Y-96545400D03*
D22*
X179806600Y-95545400D03*
D23*
G36*
X180105609Y-94747807D02*
G01*
X180154145Y-94755006D01*
X180201742Y-94766929D01*
X180247942Y-94783459D01*
X180292298Y-94804438D01*
X180334385Y-94829664D01*
X180373797Y-94858894D01*
X180410153Y-94891846D01*
X180443105Y-94928202D01*
X180472335Y-94967614D01*
X180497561Y-95009701D01*
X180518540Y-95054057D01*
X180535070Y-95100257D01*
X180546993Y-95147854D01*
X180554192Y-95196390D01*
X180556600Y-95245399D01*
X180556600Y-95245401D01*
X180554192Y-95294410D01*
X180546993Y-95342946D01*
X180535070Y-95390543D01*
X180518540Y-95436743D01*
X180497561Y-95481099D01*
X180472335Y-95523186D01*
X180443105Y-95562598D01*
X180410153Y-95598954D01*
X180373797Y-95631906D01*
X180334385Y-95661136D01*
X180292298Y-95686362D01*
X180247942Y-95707341D01*
X180201742Y-95723871D01*
X180154145Y-95735794D01*
X180105609Y-95742993D01*
X180056600Y-95745401D01*
X179556600Y-95745401D01*
X179507591Y-95742993D01*
X179459055Y-95735794D01*
X179411458Y-95723871D01*
X179365258Y-95707341D01*
X179320902Y-95686362D01*
X179278815Y-95661136D01*
X179239403Y-95631906D01*
X179203047Y-95598954D01*
X179170095Y-95562598D01*
X179140865Y-95523186D01*
X179115639Y-95481099D01*
X179094660Y-95436743D01*
X179078130Y-95390543D01*
X179066207Y-95342946D01*
X179059008Y-95294410D01*
X179056600Y-95245401D01*
X179056600Y-95245399D01*
X179059008Y-95196390D01*
X179066207Y-95147854D01*
X179078130Y-95100257D01*
X179094660Y-95054057D01*
X179115639Y-95009701D01*
X179140865Y-94967614D01*
X179170095Y-94928202D01*
X179203047Y-94891846D01*
X179239403Y-94858894D01*
X179278815Y-94829664D01*
X179320902Y-94804438D01*
X179365258Y-94783459D01*
X179411458Y-94766929D01*
X179459055Y-94755006D01*
X179507591Y-94747807D01*
X179556600Y-94745399D01*
X180056600Y-94745399D01*
X180105609Y-94747807D01*
X180105609Y-94747807D01*
G37*
D24*
X179806600Y-95245400D03*
D22*
X180568600Y-114722400D03*
D23*
G36*
X180867609Y-113924807D02*
G01*
X180916145Y-113932006D01*
X180963742Y-113943929D01*
X181009942Y-113960459D01*
X181054298Y-113981438D01*
X181096385Y-114006664D01*
X181135797Y-114035894D01*
X181172153Y-114068846D01*
X181205105Y-114105202D01*
X181234335Y-114144614D01*
X181259561Y-114186701D01*
X181280540Y-114231057D01*
X181297070Y-114277257D01*
X181308993Y-114324854D01*
X181316192Y-114373390D01*
X181318600Y-114422399D01*
X181318600Y-114422401D01*
X181316192Y-114471410D01*
X181308993Y-114519946D01*
X181297070Y-114567543D01*
X181280540Y-114613743D01*
X181259561Y-114658099D01*
X181234335Y-114700186D01*
X181205105Y-114739598D01*
X181172153Y-114775954D01*
X181135797Y-114808906D01*
X181096385Y-114838136D01*
X181054298Y-114863362D01*
X181009942Y-114884341D01*
X180963742Y-114900871D01*
X180916145Y-114912794D01*
X180867609Y-114919993D01*
X180818600Y-114922401D01*
X180318600Y-114922401D01*
X180269591Y-114919993D01*
X180221055Y-114912794D01*
X180173458Y-114900871D01*
X180127258Y-114884341D01*
X180082902Y-114863362D01*
X180040815Y-114838136D01*
X180001403Y-114808906D01*
X179965047Y-114775954D01*
X179932095Y-114739598D01*
X179902865Y-114700186D01*
X179877639Y-114658099D01*
X179856660Y-114613743D01*
X179840130Y-114567543D01*
X179828207Y-114519946D01*
X179821008Y-114471410D01*
X179818600Y-114422401D01*
X179818600Y-114422399D01*
X179821008Y-114373390D01*
X179828207Y-114324854D01*
X179840130Y-114277257D01*
X179856660Y-114231057D01*
X179877639Y-114186701D01*
X179902865Y-114144614D01*
X179932095Y-114105202D01*
X179965047Y-114068846D01*
X180001403Y-114035894D01*
X180040815Y-114006664D01*
X180082902Y-113981438D01*
X180127258Y-113960459D01*
X180173458Y-113943929D01*
X180221055Y-113932006D01*
X180269591Y-113924807D01*
X180318600Y-113922399D01*
X180818600Y-113922399D01*
X180867609Y-113924807D01*
X180867609Y-113924807D01*
G37*
D24*
X180568600Y-114422400D03*
D25*
X180568600Y-115722400D03*
D22*
X180568600Y-116722400D03*
D23*
G36*
X180867609Y-116524807D02*
G01*
X180916145Y-116532006D01*
X180963742Y-116543929D01*
X181009942Y-116560459D01*
X181054298Y-116581438D01*
X181096385Y-116606664D01*
X181135797Y-116635894D01*
X181172153Y-116668846D01*
X181205105Y-116705202D01*
X181234335Y-116744614D01*
X181259561Y-116786701D01*
X181280540Y-116831057D01*
X181297070Y-116877257D01*
X181308993Y-116924854D01*
X181316192Y-116973390D01*
X181318600Y-117022399D01*
X181318600Y-117022401D01*
X181316192Y-117071410D01*
X181308993Y-117119946D01*
X181297070Y-117167543D01*
X181280540Y-117213743D01*
X181259561Y-117258099D01*
X181234335Y-117300186D01*
X181205105Y-117339598D01*
X181172153Y-117375954D01*
X181135797Y-117408906D01*
X181096385Y-117438136D01*
X181054298Y-117463362D01*
X181009942Y-117484341D01*
X180963742Y-117500871D01*
X180916145Y-117512794D01*
X180867609Y-117519993D01*
X180818600Y-117522401D01*
X180318600Y-117522401D01*
X180269591Y-117519993D01*
X180221055Y-117512794D01*
X180173458Y-117500871D01*
X180127258Y-117484341D01*
X180082902Y-117463362D01*
X180040815Y-117438136D01*
X180001403Y-117408906D01*
X179965047Y-117375954D01*
X179932095Y-117339598D01*
X179902865Y-117300186D01*
X179877639Y-117258099D01*
X179856660Y-117213743D01*
X179840130Y-117167543D01*
X179828207Y-117119946D01*
X179821008Y-117071410D01*
X179818600Y-117022401D01*
X179818600Y-117022399D01*
X179821008Y-116973390D01*
X179828207Y-116924854D01*
X179840130Y-116877257D01*
X179856660Y-116831057D01*
X179877639Y-116786701D01*
X179902865Y-116744614D01*
X179932095Y-116705202D01*
X179965047Y-116668846D01*
X180001403Y-116635894D01*
X180040815Y-116606664D01*
X180082902Y-116581438D01*
X180127258Y-116560459D01*
X180173458Y-116543929D01*
X180221055Y-116532006D01*
X180269591Y-116524807D01*
X180318600Y-116522399D01*
X180818600Y-116522399D01*
X180867609Y-116524807D01*
X180867609Y-116524807D01*
G37*
D24*
X180568600Y-117022400D03*
D10*
X191465200Y-107772200D03*
X188765200Y-107772200D03*
X191447400Y-112039400D03*
X188747400Y-112039400D03*
X191443600Y-118262400D03*
X188743600Y-118262400D03*
X188743600Y-116179600D03*
X191443600Y-116179600D03*
X191447400Y-114096800D03*
X188747400Y-114096800D03*
D15*
X173228000Y-105841800D03*
X173228000Y-103141800D03*
D26*
X172707300Y-95313500D03*
X172707300Y-97813500D03*
D27*
X170960800Y-102821200D03*
X170960800Y-106121200D03*
X168960800Y-106121200D03*
X168960800Y-102821200D03*
D15*
X184353200Y-95297000D03*
X184353200Y-97997000D03*
D28*
X165603600Y-115341400D03*
D29*
X171403600Y-117641400D03*
X171403600Y-115341400D03*
X171403600Y-113041400D03*
D30*
X182270400Y-106414001D03*
X179156839Y-104608910D03*
X174244000Y-94996000D03*
X168122600Y-117297200D03*
X178841400Y-99847400D03*
X173482000Y-108051600D03*
X183261000Y-112166400D03*
X172694600Y-114173000D03*
X167741600Y-114046001D03*
X178054000Y-106426000D03*
X184261760Y-110601760D03*
X180543200Y-113055400D03*
X187375800Y-108915200D03*
X174281000Y-109956600D03*
X190144400Y-96291400D03*
X174320200Y-112471200D03*
X173736000Y-101295200D03*
X181305200Y-108229400D03*
X182422800Y-108204000D03*
X173863000Y-99745800D03*
X192963800Y-111404400D03*
X164980010Y-112496600D03*
X192881472Y-107461272D03*
X184937400Y-101777800D03*
X186410600Y-101717979D03*
X192288790Y-104849010D03*
X182372643Y-103210148D03*
X186461400Y-103555800D03*
X192288790Y-102766210D03*
X195732400Y-99390200D03*
X186741429Y-100181370D03*
X192596930Y-100492379D03*
X179686975Y-103133754D03*
X182118000Y-104749600D03*
X183327793Y-99354004D03*
X180672620Y-103302657D03*
X184327800Y-99356867D03*
D31*
X176834800Y-113389000D02*
X176834800Y-113189000D01*
X175673600Y-114550200D02*
X176834800Y-113389000D01*
X174269400Y-114550200D02*
X175673600Y-114550200D01*
X176834800Y-112039000D02*
X176834800Y-113189000D01*
X175234600Y-110438800D02*
X176834800Y-112039000D01*
X175588298Y-106256900D02*
X175234600Y-106610598D01*
X176358300Y-106256900D02*
X175588298Y-106256900D01*
X175234600Y-106610598D02*
X175234600Y-110438800D01*
D32*
X183896000Y-103928809D02*
X183896000Y-105762900D01*
X184067909Y-103756900D02*
X183896000Y-103928809D01*
X185058300Y-103756900D02*
X184067909Y-103756900D01*
X183896000Y-105762900D02*
X183388000Y-106270900D01*
X183388000Y-106270900D02*
X182413501Y-106270900D01*
X182413501Y-106270900D02*
X182270400Y-106414001D01*
X178458300Y-101656900D02*
X178458300Y-100230500D01*
X178458300Y-100230500D02*
X178841400Y-99847400D01*
D31*
X178756840Y-105008909D02*
X179156839Y-104608910D01*
X178054000Y-106426000D02*
X178054000Y-105711749D01*
X178054000Y-105711749D02*
X178756840Y-105008909D01*
D33*
X174625000Y-95377000D02*
X174244000Y-94996000D01*
D31*
X175260000Y-95377000D02*
X174625000Y-95377000D01*
X182958300Y-111156900D02*
X182958300Y-110356900D01*
X182958300Y-111298015D02*
X182958300Y-111156900D01*
X183261000Y-111600715D02*
X182958300Y-111298015D01*
X183261000Y-112166400D02*
X183261000Y-111600715D01*
X170960800Y-103771200D02*
X170891200Y-103840800D01*
X170960800Y-102821200D02*
X170960800Y-103771200D01*
X170891200Y-103840800D02*
X170891200Y-104267000D01*
X170891200Y-104267000D02*
X170688000Y-104470200D01*
X167741600Y-100482400D02*
X169125900Y-100482400D01*
X167716200Y-100457000D02*
X167741600Y-100482400D01*
D34*
X167716200Y-100965000D02*
X167462200Y-100711000D01*
D31*
X168122600Y-117297200D02*
X168122600Y-117678200D01*
X169494200Y-119049800D02*
X169062400Y-118618000D01*
D34*
X170256200Y-119049800D02*
X169494200Y-119049800D01*
D31*
X168122600Y-117678200D02*
X169062400Y-118618000D01*
X171429000Y-119045400D02*
X171424600Y-119049800D01*
D34*
X171429000Y-118098600D02*
X171429000Y-119045400D01*
X170256200Y-119049800D02*
X171424600Y-119049800D01*
D33*
X169202000Y-108521500D02*
X171615000Y-110934500D01*
D31*
X169077000Y-108521500D02*
X169202000Y-108521500D01*
X171615000Y-110934500D02*
X171704000Y-110934500D01*
D34*
X176834800Y-117703100D02*
X175884800Y-117703100D01*
D31*
X175884800Y-117703100D02*
X175884300Y-117703600D01*
X167868599Y-114173000D02*
X167741600Y-114046001D01*
X172694600Y-114173000D02*
X167868599Y-114173000D01*
X177731700Y-95550000D02*
X177457100Y-95275400D01*
D33*
X177904700Y-95377000D02*
X177731700Y-95550000D01*
X179506600Y-95377000D02*
X177904700Y-95377000D01*
X179679600Y-95550000D02*
X179506600Y-95377000D01*
D32*
X168960800Y-104521000D02*
X168910000Y-104470200D01*
X168960800Y-106121200D02*
X168960800Y-104521000D01*
D31*
X168910000Y-104470200D02*
X167944800Y-104470200D01*
X170688000Y-104470200D02*
X168910000Y-104470200D01*
D32*
X167944800Y-104470200D02*
X167716200Y-104470200D01*
X167716200Y-104470200D02*
X167716200Y-101346000D01*
D34*
X167716200Y-101346000D02*
X167716200Y-100965000D01*
D32*
X167716200Y-100609400D02*
X167640000Y-100533200D01*
X167716200Y-100965000D02*
X167716200Y-100609400D01*
D31*
X167640000Y-100533200D02*
X167716200Y-100457000D01*
X167462200Y-100711000D02*
X167640000Y-100533200D01*
D32*
X177723100Y-106756900D02*
X178054000Y-106426000D01*
X176358300Y-106756900D02*
X177723100Y-106756900D01*
X171123510Y-94276010D02*
X170220640Y-95178880D01*
X174244000Y-94430315D02*
X174089695Y-94276010D01*
X174089695Y-94276010D02*
X171123510Y-94276010D01*
X174244000Y-94996000D02*
X174244000Y-94430315D01*
D31*
X165633400Y-109499400D02*
X165633400Y-111201200D01*
X165633400Y-111201200D02*
X167741600Y-113309400D01*
X167741600Y-113309400D02*
X167741600Y-114046001D01*
D32*
X184261760Y-110601760D02*
X183703160Y-110601760D01*
X183703160Y-110601760D02*
X183458300Y-110356900D01*
X181539603Y-105499601D02*
X182478001Y-105499601D01*
X183860787Y-103256900D02*
X184108300Y-103256900D01*
X183395989Y-104581613D02*
X183395990Y-103721697D01*
X181356000Y-105315998D02*
X181539603Y-105499601D01*
X183395990Y-103721697D02*
X183860787Y-103256900D01*
X182478001Y-105499601D02*
X183395989Y-104581613D01*
X184108300Y-103256900D02*
X185058300Y-103256900D01*
X179378663Y-103892454D02*
X179662359Y-103892454D01*
X181085903Y-105315998D02*
X181356000Y-105315998D01*
X177958300Y-101656900D02*
X177958300Y-102472091D01*
X177958300Y-102472091D02*
X179378663Y-103892454D01*
X179662359Y-103892454D02*
X181085903Y-105315998D01*
D31*
X180543200Y-114697000D02*
X180568600Y-114722400D01*
X180543200Y-113055400D02*
X180543200Y-114697000D01*
X179679600Y-97850000D02*
X177531700Y-97850000D01*
D32*
X172460600Y-115341400D02*
X172943200Y-115824000D01*
X171403600Y-115341400D02*
X172460600Y-115341400D01*
X175514000Y-115824000D02*
X176276000Y-115062000D01*
X176276000Y-115062000D02*
X178054000Y-115062000D01*
X179518600Y-114722400D02*
X180568600Y-114722400D01*
X178393600Y-114722400D02*
X179518600Y-114722400D01*
X178054000Y-115062000D02*
X178393600Y-114722400D01*
X180568600Y-113080800D02*
X180543200Y-113055400D01*
X180568600Y-114422400D02*
X180568600Y-113080800D01*
X174269400Y-115849400D02*
X174244000Y-115824000D01*
X174269400Y-117250200D02*
X174269400Y-115849400D01*
X174244000Y-115824000D02*
X175514000Y-115824000D01*
X172943200Y-115824000D02*
X174244000Y-115824000D01*
X171403600Y-115341400D02*
X165603600Y-115341400D01*
X183458300Y-108020300D02*
X182694900Y-107256900D01*
X183458300Y-110356900D02*
X183458300Y-108020300D01*
X181356000Y-105315998D02*
X181356000Y-107256900D01*
X176358300Y-107256900D02*
X181356000Y-107256900D01*
X181356000Y-107256900D02*
X182694900Y-107256900D01*
X177958300Y-100706900D02*
X177958300Y-101656900D01*
X177958300Y-99422800D02*
X177958300Y-100706900D01*
X177457100Y-98921600D02*
X177958300Y-99422800D01*
X177457100Y-97871600D02*
X177457100Y-98921600D01*
X179780400Y-97871600D02*
X179806600Y-97845400D01*
X177457100Y-97871600D02*
X179780400Y-97871600D01*
X194335400Y-106860340D02*
X194437000Y-106961940D01*
X194335400Y-103200200D02*
X194335400Y-106860340D01*
X188639800Y-109982000D02*
X187573000Y-108915200D01*
X187573000Y-108915200D02*
X187375800Y-108915200D01*
X188739800Y-109982000D02*
X188639800Y-109982000D01*
X189865201Y-110829601D02*
X192428597Y-110829601D01*
X192428597Y-110829601D02*
X193186569Y-110071629D01*
X188865200Y-109829600D02*
X189865201Y-110829601D01*
X193186569Y-108266177D02*
X194437000Y-107015746D01*
X188765200Y-109829600D02*
X188865200Y-109829600D01*
X193186569Y-110071629D02*
X193186569Y-108266177D01*
X194437000Y-107015746D02*
X194437000Y-106961940D01*
D31*
X190119000Y-113385600D02*
X190474600Y-113030000D01*
X190474600Y-113030000D02*
X192311802Y-113030000D01*
X187773599Y-119187401D02*
X189713601Y-119187401D01*
X187022379Y-116442979D02*
X187022379Y-118436181D01*
X190119000Y-118782002D02*
X190119000Y-113385600D01*
X189713601Y-119187401D02*
X190119000Y-118782002D01*
X192311802Y-113030000D02*
X194437000Y-110904802D01*
X185724800Y-114245400D02*
X185724800Y-115145400D01*
X194437000Y-110904802D02*
X194437000Y-110750490D01*
X185724800Y-115145400D02*
X187022379Y-116442979D01*
X187022379Y-118436181D02*
X187773599Y-119187401D01*
X194437000Y-110750490D02*
X194437000Y-109801660D01*
X188819800Y-97217240D02*
X188803280Y-97200720D01*
X188819800Y-99339400D02*
X188819800Y-97217240D01*
X180958300Y-101656900D02*
X180958300Y-100856900D01*
X180958300Y-100856900D02*
X181433312Y-100381888D01*
X181433312Y-100381888D02*
X185979062Y-100381888D01*
X188538008Y-99339400D02*
X188819800Y-99339400D01*
X185979062Y-100381888D02*
X186485974Y-100888800D01*
X186485974Y-100888800D02*
X186988608Y-100888800D01*
X186988608Y-100888800D02*
X188538008Y-99339400D01*
X185953400Y-95283040D02*
X185953400Y-95148400D01*
X185953400Y-95148400D02*
X186004200Y-95097600D01*
X186004200Y-95097600D02*
X188727080Y-95097600D01*
X188788040Y-95036640D02*
X188788040Y-95087440D01*
X188727080Y-95097600D02*
X188788040Y-95036640D01*
X180458300Y-100856900D02*
X180458300Y-101656900D01*
X181283323Y-100031877D02*
X180458300Y-100856900D01*
X184812127Y-100031877D02*
X181283323Y-100031877D01*
X185394600Y-99449404D02*
X184812127Y-100031877D01*
X186461400Y-95935800D02*
X185394600Y-97002600D01*
X186461400Y-95300800D02*
X186461400Y-95935800D01*
X185394600Y-97002600D02*
X185394600Y-99449404D01*
X191053720Y-97200720D02*
X191503280Y-97200720D01*
X190144400Y-96291400D02*
X191053720Y-97200720D01*
X190544399Y-95891401D02*
X190144400Y-96291400D01*
X191348360Y-95087440D02*
X190544399Y-95891401D01*
X191488040Y-95087440D02*
X191348360Y-95087440D01*
D32*
X174281000Y-112432000D02*
X174320200Y-112471200D01*
X174281000Y-109956600D02*
X174281000Y-112432000D01*
X171403600Y-113041400D02*
X172962600Y-113041400D01*
X173532800Y-112471200D02*
X174320200Y-112471200D01*
X172962600Y-113041400D02*
X173532800Y-112471200D01*
X169082400Y-111320200D02*
X169082400Y-110744000D01*
X170803600Y-113041400D02*
X169082400Y-111320200D01*
X171403600Y-113041400D02*
X170803600Y-113041400D01*
X168182400Y-110744000D02*
X167420400Y-109982000D01*
X169082400Y-110744000D02*
X168182400Y-110744000D01*
X166999410Y-105152810D02*
X166996220Y-105156000D01*
X166999410Y-103093010D02*
X166999410Y-105152810D01*
X165785800Y-101879400D02*
X166999410Y-103093010D01*
X165633400Y-101879400D02*
X165785800Y-101879400D01*
X166996220Y-105156000D02*
X166996220Y-105274220D01*
X167420400Y-105698400D02*
X167420400Y-109982000D01*
X166996220Y-105274220D02*
X167420400Y-105698400D01*
D31*
X172707300Y-97813500D02*
X175196500Y-97813500D01*
X175196500Y-97813500D02*
X175260000Y-97877000D01*
X177327560Y-104087640D02*
X177158300Y-104256900D01*
X175260000Y-97877000D02*
X175260000Y-98002000D01*
X175260000Y-98002000D02*
X177327560Y-100069560D01*
X177158300Y-104256900D02*
X176358300Y-104256900D01*
X177327560Y-100069560D02*
X177327560Y-104087640D01*
D34*
X172307300Y-95313500D02*
X172707300Y-95313500D01*
X170220640Y-97400160D02*
X172307300Y-95313500D01*
X170220640Y-97678880D02*
X170220640Y-97400160D01*
D31*
X175558300Y-104756900D02*
X176358300Y-104756900D01*
X171106938Y-98690178D02*
X174133258Y-98690178D01*
X170220640Y-97803880D02*
X171106938Y-98690178D01*
X174133258Y-98690178D02*
X175341280Y-99898200D01*
X170220640Y-97678880D02*
X170220640Y-97803880D01*
X175341280Y-99898200D02*
X175341280Y-104539880D01*
X175341280Y-104539880D02*
X175558300Y-104756900D01*
D34*
X171500900Y-100482400D02*
X171625900Y-100482400D01*
X170274600Y-101357400D02*
X170625900Y-101357400D01*
X168960800Y-102671200D02*
X170274600Y-101357400D01*
X170625900Y-101357400D02*
X171500900Y-100482400D01*
X168960800Y-102821200D02*
X168960800Y-102671200D01*
X174675100Y-105256900D02*
X175458300Y-105256900D01*
X175458300Y-105256900D02*
X176358300Y-105256900D01*
X173228000Y-103809800D02*
X174675100Y-105256900D01*
X173228000Y-103141800D02*
X173228000Y-103809800D01*
X173228000Y-103041800D02*
X173228000Y-103141800D01*
X171625900Y-100482400D02*
X171625900Y-100886900D01*
X172328000Y-102141800D02*
X173228000Y-103041800D01*
X171625900Y-100886900D02*
X172328000Y-101589000D01*
X172328000Y-101589000D02*
X172328000Y-102141800D01*
X174128000Y-105841800D02*
X173228000Y-105841800D01*
X174162901Y-105806899D02*
X174128000Y-105841800D01*
X175620021Y-105806899D02*
X174162901Y-105806899D01*
X175670020Y-105756900D02*
X175620021Y-105806899D01*
X176358300Y-105756900D02*
X175670020Y-105756900D01*
X171240200Y-105841800D02*
X170960800Y-106121200D01*
X173228000Y-105841800D02*
X171240200Y-105841800D01*
X171577000Y-106737400D02*
X170960800Y-106121200D01*
X171577000Y-108521500D02*
X171577000Y-106737400D01*
D31*
X181958300Y-108882500D02*
X181958300Y-110356900D01*
X181305200Y-108229400D02*
X181958300Y-108882500D01*
X173736000Y-100722498D02*
X173736000Y-101295200D01*
X172403702Y-99390200D02*
X173736000Y-100722498D01*
X169214800Y-99390200D02*
X172403702Y-99390200D01*
X167995600Y-98171000D02*
X169214800Y-99390200D01*
X165633400Y-98171000D02*
X167995600Y-98171000D01*
X165633400Y-95631000D02*
X166649399Y-96646999D01*
X166649399Y-96646999D02*
X167318757Y-96646999D01*
X167318757Y-96646999D02*
X169711947Y-99040189D01*
X169711947Y-99040189D02*
X173157389Y-99040189D01*
X173157389Y-99040189D02*
X173863000Y-99745800D01*
X182458300Y-108239500D02*
X182422800Y-108204000D01*
X182458300Y-110356900D02*
X182458300Y-108239500D01*
X165607080Y-107637580D02*
X165493700Y-107637580D01*
X191820800Y-111404400D02*
X192398115Y-111404400D01*
X191465200Y-111760000D02*
X191820800Y-111404400D01*
X192398115Y-111404400D02*
X192963800Y-111404400D01*
X164980010Y-112496600D02*
X164342399Y-111858989D01*
X164342399Y-111858989D02*
X164342399Y-108098001D01*
X165481000Y-106959400D02*
X165633400Y-106959400D01*
X164342399Y-108098001D02*
X165481000Y-106959400D01*
X191465200Y-107772200D02*
X192570544Y-107772200D01*
X192570544Y-107772200D02*
X192881472Y-107461272D01*
X194640200Y-113030000D02*
X194792600Y-113030000D01*
X193573400Y-114096800D02*
X194640200Y-113030000D01*
X191447400Y-114096800D02*
X193573400Y-114096800D01*
X192053200Y-115570000D02*
X191443600Y-116179600D01*
X194792600Y-115570000D02*
X192053200Y-115570000D01*
X194640200Y-118262400D02*
X194792600Y-118110000D01*
X191443600Y-118262400D02*
X194640200Y-118262400D01*
X194335400Y-98120200D02*
X192735200Y-98120200D01*
X190525400Y-98298000D02*
X190119000Y-98704400D01*
X192735200Y-98120200D02*
X192557400Y-98298000D01*
X192557400Y-98298000D02*
X190525400Y-98298000D01*
X187864596Y-100507800D02*
X187054416Y-101317980D01*
X190119000Y-98704400D02*
X190119000Y-100076000D01*
X190119000Y-100076000D02*
X189687200Y-100507800D01*
X189687200Y-100507800D02*
X187864596Y-100507800D01*
X187054416Y-101317980D02*
X186810599Y-101317980D01*
X186810599Y-101317980D02*
X186410600Y-101717979D01*
X184816500Y-101656900D02*
X184937400Y-101777800D01*
X183458300Y-101656900D02*
X184816500Y-101656900D01*
X187655200Y-106705400D02*
X192608200Y-106705400D01*
X187401200Y-105003600D02*
X187401200Y-106451400D01*
X192963800Y-106349800D02*
X192963800Y-101879400D01*
X185058300Y-104256900D02*
X186654500Y-104256900D01*
X187401200Y-106451400D02*
X187655200Y-106705400D01*
X186654500Y-104256900D02*
X187401200Y-105003600D01*
X192608200Y-106705400D02*
X192963800Y-106349800D01*
X192963800Y-101879400D02*
X194183000Y-100660200D01*
X194183000Y-100660200D02*
X194335400Y-100660200D01*
X182219600Y-95422400D02*
X182219600Y-95322400D01*
X181092000Y-96550000D02*
X182219600Y-95422400D01*
X179679600Y-96550000D02*
X181092000Y-96550000D01*
X181804000Y-115722400D02*
X181468600Y-115722400D01*
X181468600Y-115722400D02*
X180568600Y-115722400D01*
X182930800Y-116849200D02*
X181804000Y-115722400D01*
X182930800Y-116949200D02*
X182930800Y-116849200D01*
X181458300Y-111156900D02*
X181458300Y-110356900D01*
X181458300Y-113576700D02*
X181458300Y-111156900D01*
X182130800Y-114249200D02*
X181458300Y-113576700D01*
X182930800Y-114249200D02*
X182130800Y-114249200D01*
X192288790Y-104849010D02*
X192288790Y-104865810D01*
X192288790Y-104865810D02*
X191465200Y-105689400D01*
X182458300Y-101656900D02*
X182458300Y-103124491D01*
X182458300Y-103124491D02*
X182372643Y-103210148D01*
X188765200Y-105689400D02*
X188665200Y-105689400D01*
X188665200Y-105689400D02*
X186531600Y-103555800D01*
X186531600Y-103555800D02*
X186461400Y-103555800D01*
X192288790Y-102766210D02*
X192283990Y-102766210D01*
X192283990Y-102766210D02*
X191443600Y-103606600D01*
X187843600Y-103606600D02*
X186980000Y-102743000D01*
X181697642Y-103504919D02*
X181697642Y-102895436D01*
X182970980Y-103545653D02*
X182970979Y-103606423D01*
X181958300Y-102456900D02*
X181958300Y-101656900D01*
X182600600Y-103976802D02*
X182169525Y-103976802D01*
X186980000Y-102743000D02*
X183773633Y-102743000D01*
X182169525Y-103976802D02*
X181697642Y-103504919D01*
X181697642Y-102895436D02*
X181958300Y-102634778D01*
X188743600Y-103606600D02*
X187843600Y-103606600D01*
X182970979Y-103606423D02*
X182600600Y-103976802D01*
X181958300Y-102634778D02*
X181958300Y-102456900D01*
X183773633Y-102743000D02*
X182970980Y-103545653D01*
X195681600Y-99339400D02*
X195732400Y-99390200D01*
X191519800Y-99339400D02*
X195681600Y-99339400D01*
X186741429Y-98280829D02*
X186461400Y-98000800D01*
X186741429Y-100181370D02*
X186741429Y-98280829D01*
X179958300Y-100856900D02*
X179958300Y-101656900D01*
X182139600Y-98022400D02*
X179958300Y-100203700D01*
X179958300Y-100203700D02*
X179958300Y-100856900D01*
X182219600Y-98022400D02*
X182139600Y-98022400D01*
X184865101Y-100731899D02*
X183083301Y-100731899D01*
X185612401Y-101479199D02*
X184865101Y-100731899D01*
X186018193Y-102392989D02*
X185612401Y-101987197D01*
X187843600Y-101523800D02*
X186974411Y-102392989D01*
X182958300Y-100856900D02*
X182958300Y-101656900D01*
X186974411Y-102392989D02*
X186018193Y-102392989D01*
X183083301Y-100731899D02*
X182958300Y-100856900D01*
X185612401Y-101987197D02*
X185612401Y-101479199D01*
X188743600Y-101523800D02*
X187843600Y-101523800D01*
X191543600Y-101523800D02*
X192575021Y-100492379D01*
X192575021Y-100492379D02*
X192596930Y-100492379D01*
X191443600Y-101523800D02*
X191543600Y-101523800D01*
X187865200Y-107772200D02*
X188765200Y-107772200D01*
X185058300Y-104756900D02*
X186316300Y-104756900D01*
X186316300Y-104756900D02*
X186918600Y-105359200D01*
X186918600Y-105359200D02*
X186918600Y-106825600D01*
X186918600Y-106825600D02*
X187865200Y-107772200D01*
X188865200Y-107772200D02*
X188765200Y-107772200D01*
X190922600Y-109829600D02*
X188865200Y-107772200D01*
X191465200Y-109829600D02*
X190922600Y-109829600D01*
X186862210Y-111043210D02*
X187579000Y-111760000D01*
X186862210Y-111054210D02*
X186862210Y-111043210D01*
X187847400Y-112039400D02*
X186862210Y-111054210D01*
X188747400Y-112039400D02*
X187847400Y-112039400D01*
X186385410Y-105784010D02*
X186385410Y-107035810D01*
X186385410Y-107035810D02*
X186700798Y-107351198D01*
X186700798Y-109239202D02*
X186862211Y-109400615D01*
X185858300Y-105256900D02*
X186385410Y-105784010D01*
X185058300Y-105256900D02*
X185858300Y-105256900D01*
X186700798Y-107351198D02*
X186700798Y-109239202D01*
X186862211Y-109400615D02*
X186862210Y-111043210D01*
X185812179Y-112291569D02*
X187372389Y-113851779D01*
X185058300Y-108256900D02*
X184258300Y-108256900D01*
X183896000Y-108619200D02*
X183896000Y-109236998D01*
X185812178Y-111153176D02*
X185812179Y-112291569D01*
X183896000Y-109236998D02*
X185812178Y-111153176D01*
X187372389Y-113851779D02*
X187372389Y-116991189D01*
X187372389Y-116991189D02*
X188643600Y-118262400D01*
X184258300Y-108256900D02*
X183896000Y-108619200D01*
X188643600Y-118262400D02*
X188743600Y-118262400D01*
X187722400Y-115258400D02*
X188643600Y-116179600D01*
X186162189Y-112146589D02*
X187722400Y-113706800D01*
X188643600Y-116179600D02*
X188743600Y-116179600D01*
X185058300Y-107756900D02*
X185858300Y-107756900D01*
X187722400Y-113706800D02*
X187722400Y-115258400D01*
X186000778Y-109529162D02*
X186162189Y-109690573D01*
X186000778Y-107899378D02*
X186000778Y-109529162D01*
X185858300Y-107756900D02*
X186000778Y-107899378D01*
X186162189Y-109690573D02*
X186162189Y-112146589D01*
X186512200Y-111961600D02*
X188647400Y-114096800D01*
X188647400Y-114096800D02*
X188747400Y-114096800D01*
X185858300Y-107256900D02*
X186350788Y-107749388D01*
X185058300Y-107256900D02*
X185858300Y-107256900D01*
X186350788Y-107749388D02*
X186350788Y-109384182D01*
X186512200Y-109545594D02*
X186512200Y-111961600D01*
X186350788Y-109384182D02*
X186512200Y-109545594D01*
X181120561Y-104749600D02*
X179686975Y-103316014D01*
X182118000Y-104749600D02*
X181120561Y-104749600D01*
X179686975Y-103316014D02*
X179686975Y-103133754D01*
X184353200Y-95397000D02*
X183327793Y-96422407D01*
X183327793Y-96422407D02*
X183327793Y-98788319D01*
X183327793Y-98788319D02*
X183327793Y-99354004D01*
X184353200Y-95297000D02*
X184353200Y-95397000D01*
X181458300Y-102516977D02*
X181072619Y-102902658D01*
X181072619Y-102902658D02*
X180672620Y-103302657D01*
X181458300Y-101656900D02*
X181458300Y-102516977D01*
X184353200Y-99331467D02*
X184327800Y-99356867D01*
X184353200Y-97997000D02*
X184353200Y-99331467D01*
D35*
G36*
X185102179Y-111447268D02*
G01*
X185102180Y-112221641D01*
X185088270Y-112291569D01*
X185133747Y-112520195D01*
X185143375Y-112568597D01*
X185300299Y-112803450D01*
X185359581Y-112843061D01*
X185364480Y-112847960D01*
X185074800Y-112847960D01*
X184827035Y-112897243D01*
X184616991Y-113037591D01*
X184476643Y-113247635D01*
X184427360Y-113495400D01*
X184427360Y-114995400D01*
X184476643Y-115243165D01*
X184616991Y-115453209D01*
X184827035Y-115593557D01*
X184855009Y-115599121D01*
X184715101Y-115657073D01*
X184536473Y-115835702D01*
X184439800Y-116069091D01*
X184439800Y-116659650D01*
X184598550Y-116818400D01*
X185597800Y-116818400D01*
X185597800Y-116798400D01*
X185851800Y-116798400D01*
X185851800Y-116818400D01*
X185871800Y-116818400D01*
X185871800Y-117072400D01*
X185851800Y-117072400D01*
X185851800Y-118171650D01*
X186010550Y-118330400D01*
X186312380Y-118330400D01*
X186312380Y-118366252D01*
X186298470Y-118436181D01*
X186341942Y-118654727D01*
X186353575Y-118713209D01*
X186510499Y-118948062D01*
X186569780Y-118987673D01*
X186635108Y-119053000D01*
X164665000Y-119053000D01*
X164665000Y-117927150D01*
X169693600Y-117927150D01*
X169693600Y-118242709D01*
X169790273Y-118476098D01*
X169968901Y-118654727D01*
X170202290Y-118751400D01*
X171117850Y-118751400D01*
X171276600Y-118592650D01*
X171276600Y-117768400D01*
X169852350Y-117768400D01*
X169693600Y-117927150D01*
X164665000Y-117927150D01*
X164665000Y-117613840D01*
X166678600Y-117613840D01*
X166926365Y-117564557D01*
X167136409Y-117424209D01*
X167276757Y-117214165D01*
X167311382Y-117040091D01*
X169693600Y-117040091D01*
X169693600Y-117355650D01*
X169852350Y-117514400D01*
X171276600Y-117514400D01*
X171276600Y-116690150D01*
X171117850Y-116531400D01*
X170202290Y-116531400D01*
X169968901Y-116628073D01*
X169790273Y-116806702D01*
X169693600Y-117040091D01*
X167311382Y-117040091D01*
X167326040Y-116966400D01*
X167326040Y-116126400D01*
X169772027Y-116126400D01*
X169870791Y-116274209D01*
X170080835Y-116414557D01*
X170328600Y-116463840D01*
X172478600Y-116463840D01*
X172485710Y-116462426D01*
X172588936Y-116531400D01*
X171689350Y-116531400D01*
X171530600Y-116690150D01*
X171530600Y-117514400D01*
X171550600Y-117514400D01*
X171550600Y-117768400D01*
X171530600Y-117768400D01*
X171530600Y-118592650D01*
X171689350Y-118751400D01*
X172604910Y-118751400D01*
X172838299Y-118654727D01*
X173016927Y-118476098D01*
X173076913Y-118331280D01*
X173161591Y-118458009D01*
X173371635Y-118598357D01*
X173619400Y-118647640D01*
X174919400Y-118647640D01*
X175167165Y-118598357D01*
X175377209Y-118458009D01*
X175427643Y-118382529D01*
X175496473Y-118548698D01*
X175675101Y-118727327D01*
X175908490Y-118824000D01*
X176549050Y-118824000D01*
X176707800Y-118665250D01*
X176707800Y-117316000D01*
X176961800Y-117316000D01*
X176961800Y-118665250D01*
X177120550Y-118824000D01*
X177761110Y-118824000D01*
X177994499Y-118727327D01*
X178173127Y-118548698D01*
X178269800Y-118315309D01*
X178269800Y-117474750D01*
X178111050Y-117316000D01*
X176961800Y-117316000D01*
X176707800Y-117316000D01*
X176687800Y-117316000D01*
X176687800Y-117062000D01*
X176707800Y-117062000D01*
X176707800Y-117042000D01*
X176961800Y-117042000D01*
X176961800Y-117062000D01*
X178111050Y-117062000D01*
X178269800Y-116903250D01*
X178269800Y-116062691D01*
X178176717Y-115837969D01*
X178360292Y-115801454D01*
X178619953Y-115627953D01*
X178663749Y-115562408D01*
X178718757Y-115507400D01*
X179171160Y-115507400D01*
X179171160Y-116222400D01*
X179191817Y-116326253D01*
X179183600Y-116346091D01*
X179183600Y-116849402D01*
X179296352Y-116849402D01*
X179318350Y-116871400D01*
X179294352Y-116895398D01*
X179183600Y-116895398D01*
X179183600Y-117149402D01*
X179204598Y-117149402D01*
X179244944Y-117246806D01*
X179183600Y-117308150D01*
X179183600Y-117648709D01*
X179280273Y-117882098D01*
X179458901Y-118060727D01*
X179692290Y-118157400D01*
X180282850Y-118157400D01*
X180441600Y-117998650D01*
X180441600Y-116875400D01*
X180695600Y-116875400D01*
X180695600Y-117998650D01*
X180854350Y-118157400D01*
X181444910Y-118157400D01*
X181678299Y-118060727D01*
X181726470Y-118012556D01*
X181822991Y-118157009D01*
X182033035Y-118297357D01*
X182280800Y-118346640D01*
X183580800Y-118346640D01*
X183828565Y-118297357D01*
X184038609Y-118157009D01*
X184178957Y-117946965D01*
X184228240Y-117699200D01*
X184228240Y-117231150D01*
X184439800Y-117231150D01*
X184439800Y-117821709D01*
X184536473Y-118055098D01*
X184715101Y-118233727D01*
X184948490Y-118330400D01*
X185439050Y-118330400D01*
X185597800Y-118171650D01*
X185597800Y-117072400D01*
X184598550Y-117072400D01*
X184439800Y-117231150D01*
X184228240Y-117231150D01*
X184228240Y-116199200D01*
X184178957Y-115951435D01*
X184038609Y-115741391D01*
X183828565Y-115601043D01*
X183819300Y-115599200D01*
X183828565Y-115597357D01*
X184038609Y-115457009D01*
X184178957Y-115246965D01*
X184228240Y-114999200D01*
X184228240Y-113499200D01*
X184178957Y-113251435D01*
X184038609Y-113041391D01*
X183828565Y-112901043D01*
X183580800Y-112851760D01*
X182280800Y-112851760D01*
X182168300Y-112874137D01*
X182168300Y-111637433D01*
X182208300Y-111629476D01*
X182333300Y-111654340D01*
X182583300Y-111654340D01*
X182687152Y-111633683D01*
X182706990Y-111641900D01*
X182737050Y-111641900D01*
X182759697Y-111619253D01*
X182831065Y-111605057D01*
X182958300Y-111520041D01*
X183085535Y-111605057D01*
X183156903Y-111619253D01*
X183179550Y-111641900D01*
X183209610Y-111641900D01*
X183229448Y-111633683D01*
X183333300Y-111654340D01*
X183583300Y-111654340D01*
X183831065Y-111605057D01*
X183887810Y-111567141D01*
X184055886Y-111636760D01*
X184467634Y-111636760D01*
X184848040Y-111479191D01*
X184991071Y-111336160D01*
X185102179Y-111447268D01*
X185102179Y-111447268D01*
G37*
X185102179Y-111447268D02*
X185102180Y-112221641D01*
X185088270Y-112291569D01*
X185133747Y-112520195D01*
X185143375Y-112568597D01*
X185300299Y-112803450D01*
X185359581Y-112843061D01*
X185364480Y-112847960D01*
X185074800Y-112847960D01*
X184827035Y-112897243D01*
X184616991Y-113037591D01*
X184476643Y-113247635D01*
X184427360Y-113495400D01*
X184427360Y-114995400D01*
X184476643Y-115243165D01*
X184616991Y-115453209D01*
X184827035Y-115593557D01*
X184855009Y-115599121D01*
X184715101Y-115657073D01*
X184536473Y-115835702D01*
X184439800Y-116069091D01*
X184439800Y-116659650D01*
X184598550Y-116818400D01*
X185597800Y-116818400D01*
X185597800Y-116798400D01*
X185851800Y-116798400D01*
X185851800Y-116818400D01*
X185871800Y-116818400D01*
X185871800Y-117072400D01*
X185851800Y-117072400D01*
X185851800Y-118171650D01*
X186010550Y-118330400D01*
X186312380Y-118330400D01*
X186312380Y-118366252D01*
X186298470Y-118436181D01*
X186341942Y-118654727D01*
X186353575Y-118713209D01*
X186510499Y-118948062D01*
X186569780Y-118987673D01*
X186635108Y-119053000D01*
X164665000Y-119053000D01*
X164665000Y-117927150D01*
X169693600Y-117927150D01*
X169693600Y-118242709D01*
X169790273Y-118476098D01*
X169968901Y-118654727D01*
X170202290Y-118751400D01*
X171117850Y-118751400D01*
X171276600Y-118592650D01*
X171276600Y-117768400D01*
X169852350Y-117768400D01*
X169693600Y-117927150D01*
X164665000Y-117927150D01*
X164665000Y-117613840D01*
X166678600Y-117613840D01*
X166926365Y-117564557D01*
X167136409Y-117424209D01*
X167276757Y-117214165D01*
X167311382Y-117040091D01*
X169693600Y-117040091D01*
X169693600Y-117355650D01*
X169852350Y-117514400D01*
X171276600Y-117514400D01*
X171276600Y-116690150D01*
X171117850Y-116531400D01*
X170202290Y-116531400D01*
X169968901Y-116628073D01*
X169790273Y-116806702D01*
X169693600Y-117040091D01*
X167311382Y-117040091D01*
X167326040Y-116966400D01*
X167326040Y-116126400D01*
X169772027Y-116126400D01*
X169870791Y-116274209D01*
X170080835Y-116414557D01*
X170328600Y-116463840D01*
X172478600Y-116463840D01*
X172485710Y-116462426D01*
X172588936Y-116531400D01*
X171689350Y-116531400D01*
X171530600Y-116690150D01*
X171530600Y-117514400D01*
X171550600Y-117514400D01*
X171550600Y-117768400D01*
X171530600Y-117768400D01*
X171530600Y-118592650D01*
X171689350Y-118751400D01*
X172604910Y-118751400D01*
X172838299Y-118654727D01*
X173016927Y-118476098D01*
X173076913Y-118331280D01*
X173161591Y-118458009D01*
X173371635Y-118598357D01*
X173619400Y-118647640D01*
X174919400Y-118647640D01*
X175167165Y-118598357D01*
X175377209Y-118458009D01*
X175427643Y-118382529D01*
X175496473Y-118548698D01*
X175675101Y-118727327D01*
X175908490Y-118824000D01*
X176549050Y-118824000D01*
X176707800Y-118665250D01*
X176707800Y-117316000D01*
X176961800Y-117316000D01*
X176961800Y-118665250D01*
X177120550Y-118824000D01*
X177761110Y-118824000D01*
X177994499Y-118727327D01*
X178173127Y-118548698D01*
X178269800Y-118315309D01*
X178269800Y-117474750D01*
X178111050Y-117316000D01*
X176961800Y-117316000D01*
X176707800Y-117316000D01*
X176687800Y-117316000D01*
X176687800Y-117062000D01*
X176707800Y-117062000D01*
X176707800Y-117042000D01*
X176961800Y-117042000D01*
X176961800Y-117062000D01*
X178111050Y-117062000D01*
X178269800Y-116903250D01*
X178269800Y-116062691D01*
X178176717Y-115837969D01*
X178360292Y-115801454D01*
X178619953Y-115627953D01*
X178663749Y-115562408D01*
X178718757Y-115507400D01*
X179171160Y-115507400D01*
X179171160Y-116222400D01*
X179191817Y-116326253D01*
X179183600Y-116346091D01*
X179183600Y-116849402D01*
X179296352Y-116849402D01*
X179318350Y-116871400D01*
X179294352Y-116895398D01*
X179183600Y-116895398D01*
X179183600Y-117149402D01*
X179204598Y-117149402D01*
X179244944Y-117246806D01*
X179183600Y-117308150D01*
X179183600Y-117648709D01*
X179280273Y-117882098D01*
X179458901Y-118060727D01*
X179692290Y-118157400D01*
X180282850Y-118157400D01*
X180441600Y-117998650D01*
X180441600Y-116875400D01*
X180695600Y-116875400D01*
X180695600Y-117998650D01*
X180854350Y-118157400D01*
X181444910Y-118157400D01*
X181678299Y-118060727D01*
X181726470Y-118012556D01*
X181822991Y-118157009D01*
X182033035Y-118297357D01*
X182280800Y-118346640D01*
X183580800Y-118346640D01*
X183828565Y-118297357D01*
X184038609Y-118157009D01*
X184178957Y-117946965D01*
X184228240Y-117699200D01*
X184228240Y-117231150D01*
X184439800Y-117231150D01*
X184439800Y-117821709D01*
X184536473Y-118055098D01*
X184715101Y-118233727D01*
X184948490Y-118330400D01*
X185439050Y-118330400D01*
X185597800Y-118171650D01*
X185597800Y-117072400D01*
X184598550Y-117072400D01*
X184439800Y-117231150D01*
X184228240Y-117231150D01*
X184228240Y-116199200D01*
X184178957Y-115951435D01*
X184038609Y-115741391D01*
X183828565Y-115601043D01*
X183819300Y-115599200D01*
X183828565Y-115597357D01*
X184038609Y-115457009D01*
X184178957Y-115246965D01*
X184228240Y-114999200D01*
X184228240Y-113499200D01*
X184178957Y-113251435D01*
X184038609Y-113041391D01*
X183828565Y-112901043D01*
X183580800Y-112851760D01*
X182280800Y-112851760D01*
X182168300Y-112874137D01*
X182168300Y-111637433D01*
X182208300Y-111629476D01*
X182333300Y-111654340D01*
X182583300Y-111654340D01*
X182687152Y-111633683D01*
X182706990Y-111641900D01*
X182737050Y-111641900D01*
X182759697Y-111619253D01*
X182831065Y-111605057D01*
X182958300Y-111520041D01*
X183085535Y-111605057D01*
X183156903Y-111619253D01*
X183179550Y-111641900D01*
X183209610Y-111641900D01*
X183229448Y-111633683D01*
X183333300Y-111654340D01*
X183583300Y-111654340D01*
X183831065Y-111605057D01*
X183887810Y-111567141D01*
X184055886Y-111636760D01*
X184467634Y-111636760D01*
X184848040Y-111479191D01*
X184991071Y-111336160D01*
X185102179Y-111447268D01*
G36*
X165760400Y-109372400D02*
G01*
X165780400Y-109372400D01*
X165780400Y-109626400D01*
X165760400Y-109626400D01*
X165760400Y-110839250D01*
X165919150Y-110998000D01*
X166775709Y-110998000D01*
X167009098Y-110901327D01*
X167119334Y-110791091D01*
X167572651Y-111244408D01*
X167616447Y-111309953D01*
X167684960Y-111355732D01*
X167684960Y-111369000D01*
X167734243Y-111616765D01*
X167874591Y-111826809D01*
X168084635Y-111967157D01*
X168332400Y-112016440D01*
X168668483Y-112016440D01*
X169681160Y-113029118D01*
X169681160Y-113516400D01*
X169730443Y-113764165D01*
X169870791Y-113974209D01*
X170080835Y-114114557D01*
X170328600Y-114163840D01*
X172478600Y-114163840D01*
X172726365Y-114114557D01*
X172936409Y-113974209D01*
X172971960Y-113921004D01*
X172971960Y-114461796D01*
X172936409Y-114408591D01*
X172726365Y-114268243D01*
X172478600Y-114218960D01*
X170328600Y-114218960D01*
X170080835Y-114268243D01*
X169870791Y-114408591D01*
X169772027Y-114556400D01*
X167326040Y-114556400D01*
X167326040Y-113716400D01*
X167276757Y-113468635D01*
X167136409Y-113258591D01*
X166926365Y-113118243D01*
X166678600Y-113068960D01*
X165863207Y-113068960D01*
X166015010Y-112702474D01*
X166015010Y-112290726D01*
X165857441Y-111910320D01*
X165566290Y-111619169D01*
X165185884Y-111461600D01*
X165052399Y-111461600D01*
X165052399Y-110998000D01*
X165347650Y-110998000D01*
X165506400Y-110839250D01*
X165506400Y-109626400D01*
X165486400Y-109626400D01*
X165486400Y-109372400D01*
X165506400Y-109372400D01*
X165506400Y-109352400D01*
X165760400Y-109352400D01*
X165760400Y-109372400D01*
X165760400Y-109372400D01*
G37*
X165760400Y-109372400D02*
X165780400Y-109372400D01*
X165780400Y-109626400D01*
X165760400Y-109626400D01*
X165760400Y-110839250D01*
X165919150Y-110998000D01*
X166775709Y-110998000D01*
X167009098Y-110901327D01*
X167119334Y-110791091D01*
X167572651Y-111244408D01*
X167616447Y-111309953D01*
X167684960Y-111355732D01*
X167684960Y-111369000D01*
X167734243Y-111616765D01*
X167874591Y-111826809D01*
X168084635Y-111967157D01*
X168332400Y-112016440D01*
X168668483Y-112016440D01*
X169681160Y-113029118D01*
X169681160Y-113516400D01*
X169730443Y-113764165D01*
X169870791Y-113974209D01*
X170080835Y-114114557D01*
X170328600Y-114163840D01*
X172478600Y-114163840D01*
X172726365Y-114114557D01*
X172936409Y-113974209D01*
X172971960Y-113921004D01*
X172971960Y-114461796D01*
X172936409Y-114408591D01*
X172726365Y-114268243D01*
X172478600Y-114218960D01*
X170328600Y-114218960D01*
X170080835Y-114268243D01*
X169870791Y-114408591D01*
X169772027Y-114556400D01*
X167326040Y-114556400D01*
X167326040Y-113716400D01*
X167276757Y-113468635D01*
X167136409Y-113258591D01*
X166926365Y-113118243D01*
X166678600Y-113068960D01*
X165863207Y-113068960D01*
X166015010Y-112702474D01*
X166015010Y-112290726D01*
X165857441Y-111910320D01*
X165566290Y-111619169D01*
X165185884Y-111461600D01*
X165052399Y-111461600D01*
X165052399Y-110998000D01*
X165347650Y-110998000D01*
X165506400Y-110839250D01*
X165506400Y-109626400D01*
X165486400Y-109626400D01*
X165486400Y-109372400D01*
X165506400Y-109372400D01*
X165506400Y-109352400D01*
X165760400Y-109352400D01*
X165760400Y-109372400D01*
G36*
X174524600Y-106680523D02*
G01*
X174524601Y-108937227D01*
X174486874Y-108921600D01*
X174075126Y-108921600D01*
X173694720Y-109079169D01*
X173403569Y-109370320D01*
X173246000Y-109750726D01*
X173246000Y-110162474D01*
X173403569Y-110542880D01*
X173496000Y-110635311D01*
X173496001Y-111678142D01*
X173455488Y-111686200D01*
X173455484Y-111686200D01*
X173226508Y-111731746D01*
X172966847Y-111905247D01*
X172923051Y-111970792D01*
X172845797Y-112048046D01*
X172726365Y-111968243D01*
X172603861Y-111943876D01*
X172692098Y-111907327D01*
X172870727Y-111728699D01*
X172967400Y-111495310D01*
X172967400Y-111029750D01*
X172808650Y-110871000D01*
X171709400Y-110871000D01*
X171709400Y-110891000D01*
X171455400Y-110891000D01*
X171455400Y-110871000D01*
X171435400Y-110871000D01*
X171435400Y-110617000D01*
X171455400Y-110617000D01*
X171455400Y-110597000D01*
X171709400Y-110597000D01*
X171709400Y-110617000D01*
X172808650Y-110617000D01*
X172967400Y-110458250D01*
X172967400Y-109992690D01*
X172870727Y-109759301D01*
X172743402Y-109631977D01*
X172784809Y-109604309D01*
X172925157Y-109394265D01*
X172974440Y-109146500D01*
X172974440Y-107896500D01*
X172925157Y-107648735D01*
X172784809Y-107438691D01*
X172574765Y-107298343D01*
X172337000Y-107251049D01*
X172337000Y-107191303D01*
X172578000Y-107239240D01*
X173878000Y-107239240D01*
X174125765Y-107189957D01*
X174335809Y-107049609D01*
X174476157Y-106839565D01*
X174516196Y-106638273D01*
X174524600Y-106680523D01*
X174524600Y-106680523D01*
G37*
X174524600Y-106680523D02*
X174524601Y-108937227D01*
X174486874Y-108921600D01*
X174075126Y-108921600D01*
X173694720Y-109079169D01*
X173403569Y-109370320D01*
X173246000Y-109750726D01*
X173246000Y-110162474D01*
X173403569Y-110542880D01*
X173496000Y-110635311D01*
X173496001Y-111678142D01*
X173455488Y-111686200D01*
X173455484Y-111686200D01*
X173226508Y-111731746D01*
X172966847Y-111905247D01*
X172923051Y-111970792D01*
X172845797Y-112048046D01*
X172726365Y-111968243D01*
X172603861Y-111943876D01*
X172692098Y-111907327D01*
X172870727Y-111728699D01*
X172967400Y-111495310D01*
X172967400Y-111029750D01*
X172808650Y-110871000D01*
X171709400Y-110871000D01*
X171709400Y-110891000D01*
X171455400Y-110891000D01*
X171455400Y-110871000D01*
X171435400Y-110871000D01*
X171435400Y-110617000D01*
X171455400Y-110617000D01*
X171455400Y-110597000D01*
X171709400Y-110597000D01*
X171709400Y-110617000D01*
X172808650Y-110617000D01*
X172967400Y-110458250D01*
X172967400Y-109992690D01*
X172870727Y-109759301D01*
X172743402Y-109631977D01*
X172784809Y-109604309D01*
X172925157Y-109394265D01*
X172974440Y-109146500D01*
X172974440Y-107896500D01*
X172925157Y-107648735D01*
X172784809Y-107438691D01*
X172574765Y-107298343D01*
X172337000Y-107251049D01*
X172337000Y-107191303D01*
X172578000Y-107239240D01*
X173878000Y-107239240D01*
X174125765Y-107189957D01*
X174335809Y-107049609D01*
X174476157Y-106839565D01*
X174516196Y-106638273D01*
X174524600Y-106680523D01*
G36*
X171087800Y-102694200D02*
G01*
X171107800Y-102694200D01*
X171107800Y-102948200D01*
X171087800Y-102948200D01*
X171087800Y-104097450D01*
X171246550Y-104256200D01*
X171737110Y-104256200D01*
X171970499Y-104159527D01*
X171984096Y-104145930D01*
X172120191Y-104349609D01*
X172330235Y-104489957D01*
X172339500Y-104491800D01*
X172330235Y-104493643D01*
X172120191Y-104633991D01*
X171998300Y-104816412D01*
X171858565Y-104723043D01*
X171610800Y-104673760D01*
X170310800Y-104673760D01*
X170063035Y-104723043D01*
X169971699Y-104784073D01*
X169970499Y-104782873D01*
X169737110Y-104686200D01*
X169246550Y-104686200D01*
X169087800Y-104844950D01*
X169087800Y-105994200D01*
X169107800Y-105994200D01*
X169107800Y-106248200D01*
X169087800Y-106248200D01*
X169087800Y-107397450D01*
X169204000Y-107513650D01*
X169204000Y-108394500D01*
X169224000Y-108394500D01*
X169224000Y-108648500D01*
X169204000Y-108648500D01*
X169204000Y-108668500D01*
X168950000Y-108668500D01*
X168950000Y-108648500D01*
X168930000Y-108648500D01*
X168930000Y-108394500D01*
X168950000Y-108394500D01*
X168950000Y-107420250D01*
X168833800Y-107304050D01*
X168833800Y-106248200D01*
X168813800Y-106248200D01*
X168813800Y-105994200D01*
X168833800Y-105994200D01*
X168833800Y-104844950D01*
X168675050Y-104686200D01*
X168184490Y-104686200D01*
X167951101Y-104782873D01*
X167784410Y-104949565D01*
X167784410Y-103976371D01*
X167852991Y-104079009D01*
X168063035Y-104219357D01*
X168310800Y-104268640D01*
X169610800Y-104268640D01*
X169858565Y-104219357D01*
X169949901Y-104158327D01*
X169951101Y-104159527D01*
X170184490Y-104256200D01*
X170675050Y-104256200D01*
X170833800Y-104097450D01*
X170833800Y-102948200D01*
X170813800Y-102948200D01*
X170813800Y-102694200D01*
X170833800Y-102694200D01*
X170833800Y-102674200D01*
X171087800Y-102674200D01*
X171087800Y-102694200D01*
X171087800Y-102694200D01*
G37*
X171087800Y-102694200D02*
X171107800Y-102694200D01*
X171107800Y-102948200D01*
X171087800Y-102948200D01*
X171087800Y-104097450D01*
X171246550Y-104256200D01*
X171737110Y-104256200D01*
X171970499Y-104159527D01*
X171984096Y-104145930D01*
X172120191Y-104349609D01*
X172330235Y-104489957D01*
X172339500Y-104491800D01*
X172330235Y-104493643D01*
X172120191Y-104633991D01*
X171998300Y-104816412D01*
X171858565Y-104723043D01*
X171610800Y-104673760D01*
X170310800Y-104673760D01*
X170063035Y-104723043D01*
X169971699Y-104784073D01*
X169970499Y-104782873D01*
X169737110Y-104686200D01*
X169246550Y-104686200D01*
X169087800Y-104844950D01*
X169087800Y-105994200D01*
X169107800Y-105994200D01*
X169107800Y-106248200D01*
X169087800Y-106248200D01*
X169087800Y-107397450D01*
X169204000Y-107513650D01*
X169204000Y-108394500D01*
X169224000Y-108394500D01*
X169224000Y-108648500D01*
X169204000Y-108648500D01*
X169204000Y-108668500D01*
X168950000Y-108668500D01*
X168950000Y-108648500D01*
X168930000Y-108648500D01*
X168930000Y-108394500D01*
X168950000Y-108394500D01*
X168950000Y-107420250D01*
X168833800Y-107304050D01*
X168833800Y-106248200D01*
X168813800Y-106248200D01*
X168813800Y-105994200D01*
X168833800Y-105994200D01*
X168833800Y-104844950D01*
X168675050Y-104686200D01*
X168184490Y-104686200D01*
X167951101Y-104782873D01*
X167784410Y-104949565D01*
X167784410Y-103976371D01*
X167852991Y-104079009D01*
X168063035Y-104219357D01*
X168310800Y-104268640D01*
X169610800Y-104268640D01*
X169858565Y-104219357D01*
X169949901Y-104158327D01*
X169951101Y-104159527D01*
X170184490Y-104256200D01*
X170675050Y-104256200D01*
X170833800Y-104097450D01*
X170833800Y-102948200D01*
X170813800Y-102948200D01*
X170813800Y-102694200D01*
X170833800Y-102694200D01*
X170833800Y-102674200D01*
X171087800Y-102674200D01*
X171087800Y-102694200D01*
G36*
X183760860Y-105381900D02*
G01*
X183785724Y-105506900D01*
X183760860Y-105631900D01*
X183760860Y-105881900D01*
X183785724Y-106006900D01*
X183760860Y-106131900D01*
X183760860Y-106381900D01*
X183785724Y-106506900D01*
X183760860Y-106631900D01*
X183760860Y-106881900D01*
X183785724Y-107006900D01*
X183760860Y-107131900D01*
X183760860Y-107212703D01*
X183304649Y-106756492D01*
X183260853Y-106690947D01*
X183001192Y-106517446D01*
X182772216Y-106471900D01*
X182772212Y-106471900D01*
X182694900Y-106456522D01*
X182617588Y-106471900D01*
X182141000Y-106471900D01*
X182141000Y-106284601D01*
X182400689Y-106284601D01*
X182478001Y-106299979D01*
X182555313Y-106284601D01*
X182555317Y-106284601D01*
X182784293Y-106239055D01*
X183043954Y-106065554D01*
X183087750Y-106000009D01*
X183760860Y-105326900D01*
X183760860Y-105381900D01*
X183760860Y-105381900D01*
G37*
X183760860Y-105381900D02*
X183785724Y-105506900D01*
X183760860Y-105631900D01*
X183760860Y-105881900D01*
X183785724Y-106006900D01*
X183760860Y-106131900D01*
X183760860Y-106381900D01*
X183785724Y-106506900D01*
X183760860Y-106631900D01*
X183760860Y-106881900D01*
X183785724Y-107006900D01*
X183760860Y-107131900D01*
X183760860Y-107212703D01*
X183304649Y-106756492D01*
X183260853Y-106690947D01*
X183001192Y-106517446D01*
X182772216Y-106471900D01*
X182772212Y-106471900D01*
X182694900Y-106456522D01*
X182617588Y-106471900D01*
X182141000Y-106471900D01*
X182141000Y-106284601D01*
X182400689Y-106284601D01*
X182478001Y-106299979D01*
X182555313Y-106284601D01*
X182555317Y-106284601D01*
X182784293Y-106239055D01*
X183043954Y-106065554D01*
X183087750Y-106000009D01*
X183760860Y-105326900D01*
X183760860Y-105381900D01*
G36*
X178768914Y-104392862D02*
G01*
X178812710Y-104458407D01*
X179072371Y-104631908D01*
X179301347Y-104677454D01*
X179301351Y-104677454D01*
X179346103Y-104686356D01*
X180476156Y-105816409D01*
X180519950Y-105881951D01*
X180571000Y-105916062D01*
X180571001Y-106471900D01*
X177637838Y-106471900D01*
X177655740Y-106381900D01*
X177655740Y-106131900D01*
X177630876Y-106006900D01*
X177655740Y-105881900D01*
X177655740Y-105631900D01*
X177630876Y-105506900D01*
X177655740Y-105381900D01*
X177655740Y-105131900D01*
X177630876Y-105006900D01*
X177655740Y-104881900D01*
X177655740Y-104778430D01*
X177670181Y-104768781D01*
X177709793Y-104709497D01*
X177780158Y-104639133D01*
X177839441Y-104599521D01*
X177996365Y-104364668D01*
X178037560Y-104157566D01*
X178051469Y-104087640D01*
X178037560Y-104017714D01*
X178037560Y-103661508D01*
X178768914Y-104392862D01*
X178768914Y-104392862D01*
G37*
X178768914Y-104392862D02*
X178812710Y-104458407D01*
X179072371Y-104631908D01*
X179301347Y-104677454D01*
X179301351Y-104677454D01*
X179346103Y-104686356D01*
X180476156Y-105816409D01*
X180519950Y-105881951D01*
X180571000Y-105916062D01*
X180571001Y-106471900D01*
X177637838Y-106471900D01*
X177655740Y-106381900D01*
X177655740Y-106131900D01*
X177630876Y-106006900D01*
X177655740Y-105881900D01*
X177655740Y-105631900D01*
X177630876Y-105506900D01*
X177655740Y-105381900D01*
X177655740Y-105131900D01*
X177630876Y-105006900D01*
X177655740Y-104881900D01*
X177655740Y-104778430D01*
X177670181Y-104768781D01*
X177709793Y-104709497D01*
X177780158Y-104639133D01*
X177839441Y-104599521D01*
X177996365Y-104364668D01*
X178037560Y-104157566D01*
X178051469Y-104087640D01*
X178037560Y-104017714D01*
X178037560Y-103661508D01*
X178768914Y-104392862D01*
G36*
X168103445Y-99282936D02*
G01*
X168016202Y-99319073D01*
X167837573Y-99497701D01*
X167740900Y-99731090D01*
X167740900Y-100196650D01*
X167899650Y-100355400D01*
X168998900Y-100355400D01*
X168998900Y-100335400D01*
X169252900Y-100335400D01*
X169252900Y-100355400D01*
X169272900Y-100355400D01*
X169272900Y-100609400D01*
X169252900Y-100609400D01*
X169252900Y-100629400D01*
X168998900Y-100629400D01*
X168998900Y-100609400D01*
X167899650Y-100609400D01*
X167740900Y-100768150D01*
X167740900Y-101233710D01*
X167837573Y-101467099D01*
X167901471Y-101530997D01*
X167852991Y-101563391D01*
X167712643Y-101773435D01*
X167663360Y-102021200D01*
X167663360Y-102673719D01*
X167565363Y-102527057D01*
X167499818Y-102483261D01*
X167244441Y-102227884D01*
X167313759Y-101879400D01*
X167197450Y-101294675D01*
X166866230Y-100798970D01*
X166370525Y-100467750D01*
X165933398Y-100380800D01*
X165333402Y-100380800D01*
X164896275Y-100467750D01*
X164665000Y-100622283D01*
X164665000Y-99834440D01*
X166649400Y-99834440D01*
X166897165Y-99785157D01*
X167107209Y-99644809D01*
X167247557Y-99434765D01*
X167296840Y-99187000D01*
X167296840Y-98881000D01*
X167701510Y-98881000D01*
X168103445Y-99282936D01*
X168103445Y-99282936D01*
G37*
X168103445Y-99282936D02*
X168016202Y-99319073D01*
X167837573Y-99497701D01*
X167740900Y-99731090D01*
X167740900Y-100196650D01*
X167899650Y-100355400D01*
X168998900Y-100355400D01*
X168998900Y-100335400D01*
X169252900Y-100335400D01*
X169252900Y-100355400D01*
X169272900Y-100355400D01*
X169272900Y-100609400D01*
X169252900Y-100609400D01*
X169252900Y-100629400D01*
X168998900Y-100629400D01*
X168998900Y-100609400D01*
X167899650Y-100609400D01*
X167740900Y-100768150D01*
X167740900Y-101233710D01*
X167837573Y-101467099D01*
X167901471Y-101530997D01*
X167852991Y-101563391D01*
X167712643Y-101773435D01*
X167663360Y-102021200D01*
X167663360Y-102673719D01*
X167565363Y-102527057D01*
X167499818Y-102483261D01*
X167244441Y-102227884D01*
X167313759Y-101879400D01*
X167197450Y-101294675D01*
X166866230Y-100798970D01*
X166370525Y-100467750D01*
X165933398Y-100380800D01*
X165333402Y-100380800D01*
X164896275Y-100467750D01*
X164665000Y-100622283D01*
X164665000Y-99834440D01*
X166649400Y-99834440D01*
X166897165Y-99785157D01*
X167107209Y-99644809D01*
X167247557Y-99434765D01*
X167296840Y-99187000D01*
X167296840Y-98881000D01*
X167701510Y-98881000D01*
X168103445Y-99282936D01*
G36*
X178745237Y-98656764D02*
G01*
X179117494Y-98905497D01*
X179556600Y-98992841D01*
X180056600Y-98992841D01*
X180192002Y-98965908D01*
X179505702Y-99652208D01*
X179446419Y-99691820D01*
X179289495Y-99926673D01*
X179253286Y-100108710D01*
X179234391Y-100203700D01*
X179248300Y-100273624D01*
X179248300Y-100376367D01*
X179208300Y-100384324D01*
X179083300Y-100359460D01*
X178833300Y-100359460D01*
X178743300Y-100377362D01*
X178743300Y-99500112D01*
X178758678Y-99422800D01*
X178743300Y-99345488D01*
X178743300Y-99345484D01*
X178697754Y-99116508D01*
X178676573Y-99084809D01*
X178606437Y-98979843D01*
X178680257Y-98869365D01*
X178722578Y-98656600D01*
X178745127Y-98656600D01*
X178745237Y-98656764D01*
X178745237Y-98656764D01*
G37*
X178745237Y-98656764D02*
X179117494Y-98905497D01*
X179556600Y-98992841D01*
X180056600Y-98992841D01*
X180192002Y-98965908D01*
X179505702Y-99652208D01*
X179446419Y-99691820D01*
X179289495Y-99926673D01*
X179253286Y-100108710D01*
X179234391Y-100203700D01*
X179248300Y-100273624D01*
X179248300Y-100376367D01*
X179208300Y-100384324D01*
X179083300Y-100359460D01*
X178833300Y-100359460D01*
X178743300Y-100377362D01*
X178743300Y-99500112D01*
X178758678Y-99422800D01*
X178743300Y-99345488D01*
X178743300Y-99345484D01*
X178697754Y-99116508D01*
X178676573Y-99084809D01*
X178606437Y-98979843D01*
X178680257Y-98869365D01*
X178722578Y-98656600D01*
X178745127Y-98656600D01*
X178745237Y-98656764D01*
G36*
X168960640Y-94893130D02*
G01*
X169119390Y-95051880D01*
X170093640Y-95051880D01*
X170093640Y-95031880D01*
X170347640Y-95031880D01*
X170347640Y-95051880D01*
X170367640Y-95051880D01*
X170367640Y-95305880D01*
X170347640Y-95305880D01*
X170347640Y-95325880D01*
X170093640Y-95325880D01*
X170093640Y-95305880D01*
X169119390Y-95305880D01*
X168960640Y-95464630D01*
X168960640Y-96055189D01*
X169057313Y-96288578D01*
X169198960Y-96430226D01*
X169137831Y-96471071D01*
X168997483Y-96681115D01*
X168948200Y-96928880D01*
X168948200Y-97272351D01*
X167870251Y-96194403D01*
X167830638Y-96135118D01*
X167595785Y-95978194D01*
X167388683Y-95936999D01*
X167388681Y-95936999D01*
X167318757Y-95923090D01*
X167256168Y-95935540D01*
X167316745Y-95631000D01*
X167188608Y-94986812D01*
X166904090Y-94561000D01*
X168960640Y-94561000D01*
X168960640Y-94893130D01*
X168960640Y-94893130D01*
G37*
X168960640Y-94893130D02*
X169119390Y-95051880D01*
X170093640Y-95051880D01*
X170093640Y-95031880D01*
X170347640Y-95031880D01*
X170347640Y-95051880D01*
X170367640Y-95051880D01*
X170367640Y-95305880D01*
X170347640Y-95305880D01*
X170347640Y-95325880D01*
X170093640Y-95325880D01*
X170093640Y-95305880D01*
X169119390Y-95305880D01*
X168960640Y-95464630D01*
X168960640Y-96055189D01*
X169057313Y-96288578D01*
X169198960Y-96430226D01*
X169137831Y-96471071D01*
X168997483Y-96681115D01*
X168948200Y-96928880D01*
X168948200Y-97272351D01*
X167870251Y-96194403D01*
X167830638Y-96135118D01*
X167595785Y-95978194D01*
X167388683Y-95936999D01*
X167388681Y-95936999D01*
X167318757Y-95923090D01*
X167256168Y-95935540D01*
X167316745Y-95631000D01*
X167188608Y-94986812D01*
X166904090Y-94561000D01*
X168960640Y-94561000D01*
X168960640Y-94893130D01*
G36*
X194462400Y-95453200D02*
G01*
X194482400Y-95453200D01*
X194482400Y-95707200D01*
X194462400Y-95707200D01*
X194462400Y-95727200D01*
X194208400Y-95727200D01*
X194208400Y-95707200D01*
X194188400Y-95707200D01*
X194188400Y-95453200D01*
X194208400Y-95453200D01*
X194208400Y-95433200D01*
X194462400Y-95433200D01*
X194462400Y-95453200D01*
X194462400Y-95453200D01*
G37*
X194462400Y-95453200D02*
X194482400Y-95453200D01*
X194482400Y-95707200D01*
X194462400Y-95707200D01*
X194462400Y-95727200D01*
X194208400Y-95727200D01*
X194208400Y-95707200D01*
X194188400Y-95707200D01*
X194188400Y-95453200D01*
X194208400Y-95453200D01*
X194208400Y-95433200D01*
X194462400Y-95433200D01*
X194462400Y-95453200D01*
G36*
X177584100Y-95244600D02*
G01*
X177604100Y-95244600D01*
X177604100Y-95498600D01*
X177584100Y-95498600D01*
X177584100Y-95518600D01*
X177330100Y-95518600D01*
X177330100Y-95498600D01*
X176355850Y-95498600D01*
X176350450Y-95504000D01*
X175387000Y-95504000D01*
X175387000Y-95524000D01*
X175133000Y-95524000D01*
X175133000Y-95504000D01*
X175113000Y-95504000D01*
X175113000Y-95250000D01*
X175133000Y-95250000D01*
X175133000Y-95230000D01*
X175387000Y-95230000D01*
X175387000Y-95250000D01*
X176361250Y-95250000D01*
X176366650Y-95244600D01*
X177330100Y-95244600D01*
X177330100Y-95224600D01*
X177584100Y-95224600D01*
X177584100Y-95244600D01*
X177584100Y-95244600D01*
G37*
X177584100Y-95244600D02*
X177604100Y-95244600D01*
X177604100Y-95498600D01*
X177584100Y-95498600D01*
X177584100Y-95518600D01*
X177330100Y-95518600D01*
X177330100Y-95498600D01*
X176355850Y-95498600D01*
X176350450Y-95504000D01*
X175387000Y-95504000D01*
X175387000Y-95524000D01*
X175133000Y-95524000D01*
X175133000Y-95504000D01*
X175113000Y-95504000D01*
X175113000Y-95250000D01*
X175133000Y-95250000D01*
X175133000Y-95230000D01*
X175387000Y-95230000D01*
X175387000Y-95250000D01*
X176361250Y-95250000D01*
X176366650Y-95244600D01*
X177330100Y-95244600D01*
X177330100Y-95224600D01*
X177584100Y-95224600D01*
X177584100Y-95244600D01*
G36*
X179933600Y-95392400D02*
G01*
X179679600Y-95392400D01*
X179679600Y-95098400D01*
X179933600Y-95098400D01*
X179933600Y-95392400D01*
X179933600Y-95392400D01*
G37*
X179933600Y-95392400D02*
X179679600Y-95392400D01*
X179679600Y-95098400D01*
X179933600Y-95098400D01*
X179933600Y-95392400D01*
M02*
