M48
; DRILL file {KiCad 6.0.0-rc1-unknown-1088786~66~ubuntu16.04.1} date So 29. december 2018, 10:23:00 CET
; FORMAT={-:-/ absolute / metric / decimal}
; #@! TF.CreationDate,2018-12-29T10:23:00+01:00
; #@! TF.GenerationSoftware,Kicad,Pcbnew,6.0.0-rc1-unknown-1088786~66~ubuntu16.04.1
FMAT,2
METRIC
T1C0.400
T2C1.016
%
G90
G05
T1
X164.98Y-112.497
X167.742Y-114.046
X168.123Y-117.297
X172.695Y-114.173
X173.482Y-108.052
X173.736Y-101.295
X173.863Y-99.746
X174.244Y-94.996
X174.281Y-109.957
X174.32Y-112.471
X178.054Y-106.426
X178.841Y-99.847
X179.157Y-104.609
X179.687Y-103.134
X180.543Y-113.055
X180.673Y-103.303
X181.305Y-108.229
X182.118Y-104.75
X182.27Y-106.414
X182.373Y-103.21
X182.423Y-108.204
X183.261Y-112.166
X183.328Y-99.354
X184.262Y-110.602
X184.328Y-99.357
X184.937Y-101.778
X186.411Y-101.718
X186.461Y-103.556
X186.741Y-100.181
X187.376Y-108.915
X190.144Y-96.291
X192.289Y-102.766
X192.289Y-104.849
X192.597Y-100.492
X192.881Y-107.461
X192.964Y-111.404
X195.732Y-99.39
T2
X165.633Y-95.631
X165.633Y-98.171
X194.335Y-95.58
X194.335Y-98.12
X194.335Y-100.66
X194.335Y-103.2
X194.615Y-113.005
X194.615Y-115.545
X194.615Y-118.085
X165.633Y-101.879
X165.633Y-104.419
X165.633Y-106.959
X165.633Y-109.499
T0
M30
