G04 #@! TF.GenerationSoftware,KiCad,Pcbnew,6.0.0-rc1-unknown-1088786~66~ubuntu16.04.1*
G04 #@! TF.CreationDate,2018-12-29T10:22:54+01:00
G04 #@! TF.ProjectId,audi_concert1_chorus1_volume_fix,61756469-5f63-46f6-9e63-657274315f63,rev?*
G04 #@! TF.SameCoordinates,Original*
G04 #@! TF.FileFunction,Soldermask,Bot*
G04 #@! TF.FilePolarity,Negative*
%FSLAX46Y46*%
G04 Gerber Fmt 4.6, Leading zero omitted, Abs format (unit mm)*
G04 Created by KiCad (PCBNEW 6.0.0-rc1-unknown-1088786~66~ubuntu16.04.1) date So 29. december 2018, 10:22:54 CET*
%MOMM*%
%LPD*%
G04 APERTURE LIST*
%ADD10C,0.050000*%
G04 APERTURE END LIST*
D10*
G36*
X194975703Y-117036389D02*
G01*
X195176191Y-117097207D01*
X195360964Y-117195969D01*
X195522918Y-117328882D01*
X195655831Y-117490836D01*
X195754593Y-117675609D01*
X195815411Y-117876097D01*
X195835946Y-118084600D01*
X195815411Y-118293103D01*
X195754593Y-118493591D01*
X195655831Y-118678364D01*
X195522918Y-118840318D01*
X195360964Y-118973231D01*
X195176191Y-119071993D01*
X194975703Y-119132811D01*
X194819451Y-119148200D01*
X194410149Y-119148200D01*
X194253897Y-119132811D01*
X194053409Y-119071993D01*
X193868636Y-118973231D01*
X193706682Y-118840318D01*
X193573769Y-118678364D01*
X193475007Y-118493591D01*
X193414189Y-118293103D01*
X193393654Y-118084600D01*
X193414189Y-117876097D01*
X193475007Y-117675609D01*
X193573769Y-117490836D01*
X193706682Y-117328882D01*
X193868636Y-117195969D01*
X194053409Y-117097207D01*
X194253897Y-117036389D01*
X194410149Y-117021000D01*
X194819451Y-117021000D01*
X194975703Y-117036389D01*
X194975703Y-117036389D01*
G37*
G36*
X188155601Y-115031400D02*
G01*
X188155601Y-117446400D01*
X171753601Y-117446400D01*
X171753601Y-115031400D01*
X171751744Y-115012543D01*
X171770601Y-115014400D01*
X188138601Y-115014400D01*
X188157458Y-115012543D01*
X188155601Y-115031400D01*
X188155601Y-115031400D01*
G37*
G36*
X194975703Y-114496389D02*
G01*
X195176191Y-114557207D01*
X195360964Y-114655969D01*
X195522918Y-114788882D01*
X195655831Y-114950836D01*
X195754593Y-115135609D01*
X195815411Y-115336097D01*
X195835946Y-115544600D01*
X195815411Y-115753103D01*
X195754593Y-115953591D01*
X195655831Y-116138364D01*
X195522918Y-116300318D01*
X195360964Y-116433231D01*
X195176191Y-116531993D01*
X194975703Y-116592811D01*
X194819451Y-116608200D01*
X194410149Y-116608200D01*
X194253897Y-116592811D01*
X194053409Y-116531993D01*
X193868636Y-116433231D01*
X193706682Y-116300318D01*
X193573769Y-116138364D01*
X193475007Y-115953591D01*
X193414189Y-115753103D01*
X193393654Y-115544600D01*
X193414189Y-115336097D01*
X193475007Y-115135609D01*
X193573769Y-114950836D01*
X193706682Y-114788882D01*
X193868636Y-114655969D01*
X194053409Y-114557207D01*
X194253897Y-114496389D01*
X194410149Y-114481000D01*
X194819451Y-114481000D01*
X194975703Y-114496389D01*
X194975703Y-114496389D01*
G37*
G36*
X188280601Y-98504400D02*
G01*
X190695601Y-98504400D01*
X190695601Y-114906400D01*
X188280601Y-114906400D01*
X188261744Y-114908257D01*
X188263601Y-114889400D01*
X188263601Y-98521400D01*
X188261744Y-98502543D01*
X188280601Y-98504400D01*
X188280601Y-98504400D01*
G37*
G36*
X171645601Y-98521400D02*
G01*
X171645601Y-114889400D01*
X171647458Y-114908257D01*
X171628601Y-114906400D01*
X169213601Y-114906400D01*
X169213601Y-98504400D01*
X171628601Y-98504400D01*
X171647458Y-98502543D01*
X171645601Y-98521400D01*
X171645601Y-98521400D01*
G37*
G36*
X195830800Y-114068200D02*
G01*
X193398800Y-114068200D01*
X193398800Y-111941000D01*
X195830800Y-111941000D01*
X195830800Y-114068200D01*
X195830800Y-114068200D01*
G37*
G36*
X166849400Y-110563000D02*
G01*
X164417400Y-110563000D01*
X164417400Y-108435800D01*
X166849400Y-108435800D01*
X166849400Y-110563000D01*
X166849400Y-110563000D01*
G37*
G36*
X165994303Y-105911189D02*
G01*
X166194791Y-105972007D01*
X166379564Y-106070769D01*
X166541518Y-106203682D01*
X166674431Y-106365636D01*
X166773193Y-106550409D01*
X166834011Y-106750897D01*
X166854546Y-106959400D01*
X166834011Y-107167903D01*
X166773193Y-107368391D01*
X166674431Y-107553164D01*
X166541518Y-107715118D01*
X166379564Y-107848031D01*
X166194791Y-107946793D01*
X165994303Y-108007611D01*
X165838051Y-108023000D01*
X165428749Y-108023000D01*
X165272497Y-108007611D01*
X165072009Y-107946793D01*
X164887236Y-107848031D01*
X164725282Y-107715118D01*
X164592369Y-107553164D01*
X164493607Y-107368391D01*
X164432789Y-107167903D01*
X164412254Y-106959400D01*
X164432789Y-106750897D01*
X164493607Y-106550409D01*
X164592369Y-106365636D01*
X164725282Y-106203682D01*
X164887236Y-106070769D01*
X165072009Y-105972007D01*
X165272497Y-105911189D01*
X165428749Y-105895800D01*
X165838051Y-105895800D01*
X165994303Y-105911189D01*
X165994303Y-105911189D01*
G37*
G36*
X165994303Y-103371189D02*
G01*
X166194791Y-103432007D01*
X166379564Y-103530769D01*
X166541518Y-103663682D01*
X166674431Y-103825636D01*
X166773193Y-104010409D01*
X166834011Y-104210897D01*
X166854546Y-104419400D01*
X166834011Y-104627903D01*
X166773193Y-104828391D01*
X166674431Y-105013164D01*
X166541518Y-105175118D01*
X166379564Y-105308031D01*
X166194791Y-105406793D01*
X165994303Y-105467611D01*
X165838051Y-105483000D01*
X165428749Y-105483000D01*
X165272497Y-105467611D01*
X165072009Y-105406793D01*
X164887236Y-105308031D01*
X164725282Y-105175118D01*
X164592369Y-105013164D01*
X164493607Y-104828391D01*
X164432789Y-104627903D01*
X164412254Y-104419400D01*
X164432789Y-104210897D01*
X164493607Y-104010409D01*
X164592369Y-103825636D01*
X164725282Y-103663682D01*
X164887236Y-103530769D01*
X165072009Y-103432007D01*
X165272497Y-103371189D01*
X165428749Y-103355800D01*
X165838051Y-103355800D01*
X165994303Y-103371189D01*
X165994303Y-103371189D01*
G37*
G36*
X195551400Y-104263800D02*
G01*
X193119400Y-104263800D01*
X193119400Y-102136600D01*
X195551400Y-102136600D01*
X195551400Y-104263800D01*
X195551400Y-104263800D01*
G37*
G36*
X165994303Y-100831189D02*
G01*
X166194791Y-100892007D01*
X166379564Y-100990769D01*
X166541518Y-101123682D01*
X166674431Y-101285636D01*
X166773193Y-101470409D01*
X166834011Y-101670897D01*
X166854546Y-101879400D01*
X166834011Y-102087903D01*
X166773193Y-102288391D01*
X166674431Y-102473164D01*
X166541518Y-102635118D01*
X166379564Y-102768031D01*
X166194791Y-102866793D01*
X165994303Y-102927611D01*
X165838051Y-102943000D01*
X165428749Y-102943000D01*
X165272497Y-102927611D01*
X165072009Y-102866793D01*
X164887236Y-102768031D01*
X164725282Y-102635118D01*
X164592369Y-102473164D01*
X164493607Y-102288391D01*
X164432789Y-102087903D01*
X164412254Y-101879400D01*
X164432789Y-101670897D01*
X164493607Y-101470409D01*
X164592369Y-101285636D01*
X164725282Y-101123682D01*
X164887236Y-100990769D01*
X165072009Y-100892007D01*
X165272497Y-100831189D01*
X165428749Y-100815800D01*
X165838051Y-100815800D01*
X165994303Y-100831189D01*
X165994303Y-100831189D01*
G37*
G36*
X194696303Y-99611989D02*
G01*
X194896791Y-99672807D01*
X195081564Y-99771569D01*
X195243518Y-99904482D01*
X195376431Y-100066436D01*
X195475193Y-100251209D01*
X195536011Y-100451697D01*
X195556546Y-100660200D01*
X195536011Y-100868703D01*
X195475193Y-101069191D01*
X195376431Y-101253964D01*
X195243518Y-101415918D01*
X195081564Y-101548831D01*
X194896791Y-101647593D01*
X194696303Y-101708411D01*
X194540051Y-101723800D01*
X194130749Y-101723800D01*
X193974497Y-101708411D01*
X193774009Y-101647593D01*
X193589236Y-101548831D01*
X193427282Y-101415918D01*
X193294369Y-101253964D01*
X193195607Y-101069191D01*
X193134789Y-100868703D01*
X193114254Y-100660200D01*
X193134789Y-100451697D01*
X193195607Y-100251209D01*
X193294369Y-100066436D01*
X193427282Y-99904482D01*
X193589236Y-99771569D01*
X193774009Y-99672807D01*
X193974497Y-99611989D01*
X194130749Y-99596600D01*
X194540051Y-99596600D01*
X194696303Y-99611989D01*
X194696303Y-99611989D01*
G37*
G36*
X165752681Y-94420865D02*
G01*
X165871778Y-94432595D01*
X166024589Y-94478950D01*
X166100995Y-94502127D01*
X166156862Y-94531989D01*
X166312242Y-94615041D01*
X166497402Y-94766998D01*
X166649359Y-94952158D01*
X166732096Y-95106948D01*
X166762273Y-95163405D01*
X166762273Y-95163406D01*
X166831805Y-95392622D01*
X166855283Y-95631000D01*
X166831805Y-95869378D01*
X166802980Y-95964400D01*
X166762273Y-96098595D01*
X166732096Y-96155052D01*
X166649359Y-96309842D01*
X166497402Y-96495002D01*
X166312242Y-96646959D01*
X166176040Y-96719760D01*
X166155666Y-96733374D01*
X166138339Y-96750701D01*
X166124725Y-96771076D01*
X166115347Y-96793715D01*
X166110567Y-96817748D01*
X166110567Y-96842252D01*
X166115348Y-96866286D01*
X166124725Y-96888925D01*
X166138339Y-96909299D01*
X166155666Y-96926626D01*
X166176041Y-96940240D01*
X166198680Y-96949618D01*
X166234965Y-96955000D01*
X166849400Y-96955000D01*
X166849400Y-99387000D01*
X164417400Y-99387000D01*
X164417400Y-96955000D01*
X165031835Y-96955000D01*
X165056221Y-96952598D01*
X165079670Y-96945485D01*
X165101281Y-96933934D01*
X165120223Y-96918388D01*
X165135769Y-96899446D01*
X165147320Y-96877835D01*
X165154433Y-96854386D01*
X165156835Y-96830000D01*
X165154433Y-96805614D01*
X165147320Y-96782165D01*
X165135769Y-96760554D01*
X165120223Y-96741612D01*
X165090760Y-96719760D01*
X164954558Y-96646959D01*
X164769398Y-96495002D01*
X164617441Y-96309842D01*
X164534704Y-96155052D01*
X164504527Y-96098595D01*
X164463820Y-95964400D01*
X164434995Y-95869378D01*
X164411517Y-95631000D01*
X164434995Y-95392622D01*
X164504527Y-95163406D01*
X164504527Y-95163405D01*
X164534704Y-95106948D01*
X164617441Y-94952158D01*
X164769398Y-94766998D01*
X164954558Y-94615041D01*
X165109938Y-94531989D01*
X165165805Y-94502127D01*
X165242211Y-94478950D01*
X165395022Y-94432595D01*
X165514119Y-94420865D01*
X165573667Y-94415000D01*
X165693133Y-94415000D01*
X165752681Y-94420865D01*
X165752681Y-94420865D01*
G37*
G36*
X194696303Y-97071989D02*
G01*
X194896791Y-97132807D01*
X195081564Y-97231569D01*
X195243518Y-97364482D01*
X195376431Y-97526436D01*
X195475193Y-97711209D01*
X195536011Y-97911697D01*
X195556546Y-98120200D01*
X195536011Y-98328703D01*
X195475193Y-98529191D01*
X195376431Y-98713964D01*
X195243518Y-98875918D01*
X195081564Y-99008831D01*
X194896791Y-99107593D01*
X194696303Y-99168411D01*
X194540051Y-99183800D01*
X194130749Y-99183800D01*
X193974497Y-99168411D01*
X193774009Y-99107593D01*
X193589236Y-99008831D01*
X193427282Y-98875918D01*
X193294369Y-98713964D01*
X193195607Y-98529191D01*
X193134789Y-98328703D01*
X193114254Y-98120200D01*
X193134789Y-97911697D01*
X193195607Y-97711209D01*
X193294369Y-97526436D01*
X193427282Y-97364482D01*
X193589236Y-97231569D01*
X193774009Y-97132807D01*
X193974497Y-97071989D01*
X194130749Y-97056600D01*
X194540051Y-97056600D01*
X194696303Y-97071989D01*
X194696303Y-97071989D01*
G37*
G36*
X188155601Y-98379400D02*
G01*
X188157458Y-98398257D01*
X188138601Y-98396400D01*
X171770601Y-98396400D01*
X171751744Y-98398257D01*
X171753601Y-98379400D01*
X171753601Y-95964400D01*
X188155601Y-95964400D01*
X188155601Y-98379400D01*
X188155601Y-98379400D01*
G37*
G36*
X194696303Y-94531989D02*
G01*
X194896791Y-94592807D01*
X195081564Y-94691569D01*
X195243518Y-94824482D01*
X195376431Y-94986436D01*
X195475193Y-95171209D01*
X195536011Y-95371697D01*
X195556546Y-95580200D01*
X195536011Y-95788703D01*
X195475193Y-95989191D01*
X195376431Y-96173964D01*
X195243518Y-96335918D01*
X195081564Y-96468831D01*
X194896791Y-96567593D01*
X194696303Y-96628411D01*
X194540051Y-96643800D01*
X194130749Y-96643800D01*
X193974497Y-96628411D01*
X193774009Y-96567593D01*
X193589236Y-96468831D01*
X193427282Y-96335918D01*
X193294369Y-96173964D01*
X193195607Y-95989191D01*
X193134789Y-95788703D01*
X193114254Y-95580200D01*
X193134789Y-95371697D01*
X193195607Y-95171209D01*
X193294369Y-94986436D01*
X193427282Y-94824482D01*
X193589236Y-94691569D01*
X193774009Y-94592807D01*
X193974497Y-94531989D01*
X194130749Y-94516600D01*
X194540051Y-94516600D01*
X194696303Y-94531989D01*
X194696303Y-94531989D01*
G37*
M02*
