G04 #@! TF.GenerationSoftware,KiCad,Pcbnew,6.0.0-rc1-unknown-1088786~66~ubuntu16.04.1*
G04 #@! TF.CreationDate,2018-12-29T10:22:54+01:00
G04 #@! TF.ProjectId,audi_concert1_chorus1_volume_fix,61756469-5f63-46f6-9e63-657274315f63,rev?*
G04 #@! TF.SameCoordinates,Original*
G04 #@! TF.FileFunction,Soldermask,Top*
G04 #@! TF.FilePolarity,Negative*
%FSLAX46Y46*%
G04 Gerber Fmt 4.6, Leading zero omitted, Abs format (unit mm)*
G04 Created by KiCad (PCBNEW 6.0.0-rc1-unknown-1088786~66~ubuntu16.04.1) date So 29. december 2018, 10:22:54 CET*
%MOMM*%
%LPD*%
G04 APERTURE LIST*
%ADD10C,0.050000*%
G04 APERTURE END LIST*
D10*
G36*
X194975703Y-117036389D02*
G01*
X195176191Y-117097207D01*
X195360964Y-117195969D01*
X195522918Y-117328882D01*
X195655831Y-117490836D01*
X195754593Y-117675609D01*
X195815411Y-117876097D01*
X195835946Y-118084600D01*
X195815411Y-118293103D01*
X195754593Y-118493591D01*
X195655831Y-118678364D01*
X195522918Y-118840318D01*
X195360964Y-118973231D01*
X195176191Y-119071993D01*
X194975703Y-119132811D01*
X194819451Y-119148200D01*
X194410149Y-119148200D01*
X194253897Y-119132811D01*
X194053409Y-119071993D01*
X193868636Y-118973231D01*
X193706682Y-118840318D01*
X193573769Y-118678364D01*
X193475007Y-118493591D01*
X193414189Y-118293103D01*
X193393654Y-118084600D01*
X193414189Y-117876097D01*
X193475007Y-117675609D01*
X193573769Y-117490836D01*
X193706682Y-117328882D01*
X193868636Y-117195969D01*
X194053409Y-117097207D01*
X194253897Y-117036389D01*
X194410149Y-117021000D01*
X194819451Y-117021000D01*
X194975703Y-117036389D01*
X194975703Y-117036389D01*
G37*
G36*
X192393600Y-119112400D02*
G01*
X190493600Y-119112400D01*
X190493600Y-117412400D01*
X192393600Y-117412400D01*
X192393600Y-119112400D01*
X192393600Y-119112400D01*
G37*
G36*
X189693600Y-119112400D02*
G01*
X187793600Y-119112400D01*
X187793600Y-117412400D01*
X189693600Y-117412400D01*
X189693600Y-119112400D01*
X189693600Y-119112400D01*
G37*
G36*
X177834800Y-118389000D02*
G01*
X175834800Y-118389000D01*
X175834800Y-115989000D01*
X177834800Y-115989000D01*
X177834800Y-118389000D01*
X177834800Y-118389000D01*
G37*
G36*
X172678600Y-118316400D02*
G01*
X170128600Y-118316400D01*
X170128600Y-116966400D01*
X172678600Y-116966400D01*
X172678600Y-118316400D01*
X172678600Y-118316400D01*
G37*
G36*
X175119400Y-118200200D02*
G01*
X173419400Y-118200200D01*
X173419400Y-116300200D01*
X175119400Y-116300200D01*
X175119400Y-118200200D01*
X175119400Y-118200200D01*
G37*
G36*
X183780800Y-117899200D02*
G01*
X182080800Y-117899200D01*
X182080800Y-115999200D01*
X183780800Y-115999200D01*
X183780800Y-117899200D01*
X183780800Y-117899200D01*
G37*
G36*
X186574800Y-117895400D02*
G01*
X184874800Y-117895400D01*
X184874800Y-115995400D01*
X186574800Y-115995400D01*
X186574800Y-117895400D01*
X186574800Y-117895400D01*
G37*
G36*
X180955163Y-113735849D02*
G01*
X181086478Y-113775683D01*
X181207499Y-113840370D01*
X181313575Y-113927424D01*
X181400629Y-114033500D01*
X181465316Y-114154521D01*
X181475882Y-114189352D01*
X181482912Y-114206325D01*
X181496526Y-114226700D01*
X181513853Y-114244027D01*
X181518600Y-114247199D01*
X181518600Y-117197657D01*
X181504764Y-117209012D01*
X181489218Y-117227954D01*
X181475287Y-117257411D01*
X181465316Y-117290279D01*
X181400629Y-117411300D01*
X181313575Y-117517376D01*
X181207499Y-117604430D01*
X181086478Y-117669117D01*
X180955163Y-117708951D01*
X180818600Y-117722401D01*
X180318600Y-117722401D01*
X180182037Y-117708951D01*
X180050722Y-117669117D01*
X179929701Y-117604430D01*
X179823625Y-117517376D01*
X179736571Y-117411300D01*
X179671884Y-117290279D01*
X179661318Y-117255448D01*
X179654288Y-117238475D01*
X179640674Y-117218100D01*
X179623347Y-117200773D01*
X179618600Y-117197601D01*
X179618600Y-114247143D01*
X179632436Y-114235788D01*
X179647982Y-114216846D01*
X179661913Y-114187389D01*
X179671884Y-114154521D01*
X179736571Y-114033500D01*
X179823625Y-113927424D01*
X179929701Y-113840370D01*
X180050722Y-113775683D01*
X180182037Y-113735849D01*
X180318600Y-113722399D01*
X180818600Y-113722399D01*
X180955163Y-113735849D01*
X180955163Y-113735849D01*
G37*
G36*
X166878600Y-117166400D02*
G01*
X164328600Y-117166400D01*
X164328600Y-113516400D01*
X166878600Y-113516400D01*
X166878600Y-117166400D01*
X166878600Y-117166400D01*
G37*
G36*
X192393600Y-117029600D02*
G01*
X190493600Y-117029600D01*
X190493600Y-115329600D01*
X192393600Y-115329600D01*
X192393600Y-117029600D01*
X192393600Y-117029600D01*
G37*
G36*
X189693600Y-117029600D02*
G01*
X187793600Y-117029600D01*
X187793600Y-115329600D01*
X189693600Y-115329600D01*
X189693600Y-117029600D01*
X189693600Y-117029600D01*
G37*
G36*
X194975703Y-114496389D02*
G01*
X195176191Y-114557207D01*
X195360964Y-114655969D01*
X195522918Y-114788882D01*
X195655831Y-114950836D01*
X195754593Y-115135609D01*
X195815411Y-115336097D01*
X195835946Y-115544600D01*
X195815411Y-115753103D01*
X195754593Y-115953591D01*
X195655831Y-116138364D01*
X195522918Y-116300318D01*
X195360964Y-116433231D01*
X195176191Y-116531993D01*
X194975703Y-116592811D01*
X194819451Y-116608200D01*
X194410149Y-116608200D01*
X194253897Y-116592811D01*
X194053409Y-116531993D01*
X193868636Y-116433231D01*
X193706682Y-116300318D01*
X193573769Y-116138364D01*
X193475007Y-115953591D01*
X193414189Y-115753103D01*
X193393654Y-115544600D01*
X193414189Y-115336097D01*
X193475007Y-115135609D01*
X193573769Y-114950836D01*
X193706682Y-114788882D01*
X193868636Y-114655969D01*
X194053409Y-114557207D01*
X194253897Y-114496389D01*
X194410149Y-114481000D01*
X194819451Y-114481000D01*
X194975703Y-114496389D01*
X194975703Y-114496389D01*
G37*
G36*
X172678600Y-116016400D02*
G01*
X170128600Y-116016400D01*
X170128600Y-114666400D01*
X172678600Y-114666400D01*
X172678600Y-116016400D01*
X172678600Y-116016400D01*
G37*
G36*
X175119400Y-115500200D02*
G01*
X173419400Y-115500200D01*
X173419400Y-113600200D01*
X175119400Y-113600200D01*
X175119400Y-115500200D01*
X175119400Y-115500200D01*
G37*
G36*
X183780800Y-115199200D02*
G01*
X182080800Y-115199200D01*
X182080800Y-113299200D01*
X183780800Y-113299200D01*
X183780800Y-115199200D01*
X183780800Y-115199200D01*
G37*
G36*
X186574800Y-115195400D02*
G01*
X184874800Y-115195400D01*
X184874800Y-113295400D01*
X186574800Y-113295400D01*
X186574800Y-115195400D01*
X186574800Y-115195400D01*
G37*
G36*
X189697400Y-114946800D02*
G01*
X187797400Y-114946800D01*
X187797400Y-113246800D01*
X189697400Y-113246800D01*
X189697400Y-114946800D01*
X189697400Y-114946800D01*
G37*
G36*
X192397400Y-114946800D02*
G01*
X190497400Y-114946800D01*
X190497400Y-113246800D01*
X192397400Y-113246800D01*
X192397400Y-114946800D01*
X192397400Y-114946800D01*
G37*
G36*
X177834800Y-114389000D02*
G01*
X175834800Y-114389000D01*
X175834800Y-111989000D01*
X177834800Y-111989000D01*
X177834800Y-114389000D01*
X177834800Y-114389000D01*
G37*
G36*
X195830800Y-114068200D02*
G01*
X193398800Y-114068200D01*
X193398800Y-111941000D01*
X195830800Y-111941000D01*
X195830800Y-114068200D01*
X195830800Y-114068200D01*
G37*
G36*
X172678600Y-113716400D02*
G01*
X170128600Y-113716400D01*
X170128600Y-112366400D01*
X172678600Y-112366400D01*
X172678600Y-113716400D01*
X172678600Y-113716400D01*
G37*
G36*
X192397400Y-112889400D02*
G01*
X190497400Y-112889400D01*
X190497400Y-111189400D01*
X192397400Y-111189400D01*
X192397400Y-112889400D01*
X192397400Y-112889400D01*
G37*
G36*
X189697400Y-112889400D02*
G01*
X187797400Y-112889400D01*
X187797400Y-111189400D01*
X189697400Y-111189400D01*
X189697400Y-112889400D01*
X189697400Y-112889400D01*
G37*
G36*
X170032400Y-111569000D02*
G01*
X168132400Y-111569000D01*
X168132400Y-109919000D01*
X170032400Y-109919000D01*
X170032400Y-111569000D01*
X170032400Y-111569000D01*
G37*
G36*
X172532400Y-111569000D02*
G01*
X170632400Y-111569000D01*
X170632400Y-109919000D01*
X172532400Y-109919000D01*
X172532400Y-111569000D01*
X172532400Y-111569000D01*
G37*
G36*
X183783300Y-111206900D02*
G01*
X177633300Y-111206900D01*
X177633300Y-109506900D01*
X183783300Y-109506900D01*
X183783300Y-111206900D01*
X183783300Y-111206900D01*
G37*
G36*
X195537430Y-110800490D02*
G01*
X193336570Y-110800490D01*
X193336570Y-108802830D01*
X195537430Y-108802830D01*
X195537430Y-110800490D01*
X195537430Y-110800490D01*
G37*
G36*
X189715200Y-110679600D02*
G01*
X187815200Y-110679600D01*
X187815200Y-108979600D01*
X189715200Y-108979600D01*
X189715200Y-110679600D01*
X189715200Y-110679600D01*
G37*
G36*
X192415200Y-110679600D02*
G01*
X190515200Y-110679600D01*
X190515200Y-108979600D01*
X192415200Y-108979600D01*
X192415200Y-110679600D01*
X192415200Y-110679600D01*
G37*
G36*
X166849400Y-110563000D02*
G01*
X164417400Y-110563000D01*
X164417400Y-108435800D01*
X166849400Y-108435800D01*
X166849400Y-110563000D01*
X166849400Y-110563000D01*
G37*
G36*
X172527000Y-109346500D02*
G01*
X170627000Y-109346500D01*
X170627000Y-107696500D01*
X172527000Y-107696500D01*
X172527000Y-109346500D01*
X172527000Y-109346500D01*
G37*
G36*
X170027000Y-109346500D02*
G01*
X168127000Y-109346500D01*
X168127000Y-107696500D01*
X170027000Y-107696500D01*
X170027000Y-109346500D01*
X170027000Y-109346500D01*
G37*
G36*
X177208300Y-109081900D02*
G01*
X175508300Y-109081900D01*
X175508300Y-102931900D01*
X177208300Y-102931900D01*
X177208300Y-109081900D01*
X177208300Y-109081900D01*
G37*
G36*
X185908300Y-109081900D02*
G01*
X184208300Y-109081900D01*
X184208300Y-102931900D01*
X185908300Y-102931900D01*
X185908300Y-109081900D01*
X185908300Y-109081900D01*
G37*
G36*
X192415200Y-108622200D02*
G01*
X190515200Y-108622200D01*
X190515200Y-106922200D01*
X192415200Y-106922200D01*
X192415200Y-108622200D01*
X192415200Y-108622200D01*
G37*
G36*
X189715200Y-108622200D02*
G01*
X187815200Y-108622200D01*
X187815200Y-106922200D01*
X189715200Y-106922200D01*
X189715200Y-108622200D01*
X189715200Y-108622200D01*
G37*
G36*
X165994303Y-105911189D02*
G01*
X166194791Y-105972007D01*
X166379564Y-106070769D01*
X166541518Y-106203682D01*
X166674431Y-106365636D01*
X166773193Y-106550409D01*
X166834011Y-106750897D01*
X166854546Y-106959400D01*
X166834011Y-107167903D01*
X166773193Y-107368391D01*
X166674431Y-107553164D01*
X166541518Y-107715118D01*
X166379564Y-107848031D01*
X166194791Y-107946793D01*
X165994303Y-108007611D01*
X165838051Y-108023000D01*
X165428749Y-108023000D01*
X165272497Y-108007611D01*
X165072009Y-107946793D01*
X164887236Y-107848031D01*
X164725282Y-107715118D01*
X164592369Y-107553164D01*
X164493607Y-107368391D01*
X164432789Y-107167903D01*
X164412254Y-106959400D01*
X164432789Y-106750897D01*
X164493607Y-106550409D01*
X164592369Y-106365636D01*
X164725282Y-106203682D01*
X164887236Y-106070769D01*
X165072009Y-105972007D01*
X165272497Y-105911189D01*
X165428749Y-105895800D01*
X165838051Y-105895800D01*
X165994303Y-105911189D01*
X165994303Y-105911189D01*
G37*
G36*
X195537430Y-107960770D02*
G01*
X193336570Y-107960770D01*
X193336570Y-105963110D01*
X195537430Y-105963110D01*
X195537430Y-107960770D01*
X195537430Y-107960770D01*
G37*
G36*
X169810800Y-107121200D02*
G01*
X168110800Y-107121200D01*
X168110800Y-105121200D01*
X169810800Y-105121200D01*
X169810800Y-107121200D01*
X169810800Y-107121200D01*
G37*
G36*
X171810800Y-107121200D02*
G01*
X170110800Y-107121200D01*
X170110800Y-105121200D01*
X171810800Y-105121200D01*
X171810800Y-107121200D01*
X171810800Y-107121200D01*
G37*
G36*
X174078000Y-106791800D02*
G01*
X172378000Y-106791800D01*
X172378000Y-104891800D01*
X174078000Y-104891800D01*
X174078000Y-106791800D01*
X174078000Y-106791800D01*
G37*
G36*
X192415200Y-106539400D02*
G01*
X190515200Y-106539400D01*
X190515200Y-104839400D01*
X192415200Y-104839400D01*
X192415200Y-106539400D01*
X192415200Y-106539400D01*
G37*
G36*
X189715200Y-106539400D02*
G01*
X187815200Y-106539400D01*
X187815200Y-104839400D01*
X189715200Y-104839400D01*
X189715200Y-106539400D01*
X189715200Y-106539400D01*
G37*
G36*
X165994303Y-103371189D02*
G01*
X166194791Y-103432007D01*
X166379564Y-103530769D01*
X166541518Y-103663682D01*
X166674431Y-103825636D01*
X166773193Y-104010409D01*
X166834011Y-104210897D01*
X166854546Y-104419400D01*
X166834011Y-104627903D01*
X166773193Y-104828391D01*
X166674431Y-105013164D01*
X166541518Y-105175118D01*
X166379564Y-105308031D01*
X166194791Y-105406793D01*
X165994303Y-105467611D01*
X165838051Y-105483000D01*
X165428749Y-105483000D01*
X165272497Y-105467611D01*
X165072009Y-105406793D01*
X164887236Y-105308031D01*
X164725282Y-105175118D01*
X164592369Y-105013164D01*
X164493607Y-104828391D01*
X164432789Y-104627903D01*
X164412254Y-104419400D01*
X164432789Y-104210897D01*
X164493607Y-104010409D01*
X164592369Y-103825636D01*
X164725282Y-103663682D01*
X164887236Y-103530769D01*
X165072009Y-103432007D01*
X165272497Y-103371189D01*
X165428749Y-103355800D01*
X165838051Y-103355800D01*
X165994303Y-103371189D01*
X165994303Y-103371189D01*
G37*
G36*
X189693600Y-104456600D02*
G01*
X187793600Y-104456600D01*
X187793600Y-102756600D01*
X189693600Y-102756600D01*
X189693600Y-104456600D01*
X189693600Y-104456600D01*
G37*
G36*
X192393600Y-104456600D02*
G01*
X190493600Y-104456600D01*
X190493600Y-102756600D01*
X192393600Y-102756600D01*
X192393600Y-104456600D01*
X192393600Y-104456600D01*
G37*
G36*
X195551400Y-104263800D02*
G01*
X193119400Y-104263800D01*
X193119400Y-102136600D01*
X195551400Y-102136600D01*
X195551400Y-104263800D01*
X195551400Y-104263800D01*
G37*
G36*
X174078000Y-104091800D02*
G01*
X172378000Y-104091800D01*
X172378000Y-102191800D01*
X174078000Y-102191800D01*
X174078000Y-104091800D01*
X174078000Y-104091800D01*
G37*
G36*
X171810800Y-103821200D02*
G01*
X170110800Y-103821200D01*
X170110800Y-101821200D01*
X171810800Y-101821200D01*
X171810800Y-103821200D01*
X171810800Y-103821200D01*
G37*
G36*
X169810800Y-103821200D02*
G01*
X168110800Y-103821200D01*
X168110800Y-101821200D01*
X169810800Y-101821200D01*
X169810800Y-103821200D01*
X169810800Y-103821200D01*
G37*
G36*
X165994303Y-100831189D02*
G01*
X166194791Y-100892007D01*
X166379564Y-100990769D01*
X166541518Y-101123682D01*
X166674431Y-101285636D01*
X166773193Y-101470409D01*
X166834011Y-101670897D01*
X166854546Y-101879400D01*
X166834011Y-102087903D01*
X166773193Y-102288391D01*
X166674431Y-102473164D01*
X166541518Y-102635118D01*
X166379564Y-102768031D01*
X166194791Y-102866793D01*
X165994303Y-102927611D01*
X165838051Y-102943000D01*
X165428749Y-102943000D01*
X165272497Y-102927611D01*
X165072009Y-102866793D01*
X164887236Y-102768031D01*
X164725282Y-102635118D01*
X164592369Y-102473164D01*
X164493607Y-102288391D01*
X164432789Y-102087903D01*
X164412254Y-101879400D01*
X164432789Y-101670897D01*
X164493607Y-101470409D01*
X164592369Y-101285636D01*
X164725282Y-101123682D01*
X164887236Y-100990769D01*
X165072009Y-100892007D01*
X165272497Y-100831189D01*
X165428749Y-100815800D01*
X165838051Y-100815800D01*
X165994303Y-100831189D01*
X165994303Y-100831189D01*
G37*
G36*
X183783300Y-102506900D02*
G01*
X177633300Y-102506900D01*
X177633300Y-100806900D01*
X183783300Y-100806900D01*
X183783300Y-102506900D01*
X183783300Y-102506900D01*
G37*
G36*
X189693600Y-102373800D02*
G01*
X187793600Y-102373800D01*
X187793600Y-100673800D01*
X189693600Y-100673800D01*
X189693600Y-102373800D01*
X189693600Y-102373800D01*
G37*
G36*
X192393600Y-102373800D02*
G01*
X190493600Y-102373800D01*
X190493600Y-100673800D01*
X192393600Y-100673800D01*
X192393600Y-102373800D01*
X192393600Y-102373800D01*
G37*
G36*
X194696303Y-99611989D02*
G01*
X194896791Y-99672807D01*
X195081564Y-99771569D01*
X195243518Y-99904482D01*
X195376431Y-100066436D01*
X195475193Y-100251209D01*
X195536011Y-100451697D01*
X195556546Y-100660200D01*
X195536011Y-100868703D01*
X195475193Y-101069191D01*
X195376431Y-101253964D01*
X195243518Y-101415918D01*
X195081564Y-101548831D01*
X194896791Y-101647593D01*
X194696303Y-101708411D01*
X194540051Y-101723800D01*
X194130749Y-101723800D01*
X193974497Y-101708411D01*
X193774009Y-101647593D01*
X193589236Y-101548831D01*
X193427282Y-101415918D01*
X193294369Y-101253964D01*
X193195607Y-101069191D01*
X193134789Y-100868703D01*
X193114254Y-100660200D01*
X193134789Y-100451697D01*
X193195607Y-100251209D01*
X193294369Y-100066436D01*
X193427282Y-99904482D01*
X193589236Y-99771569D01*
X193774009Y-99672807D01*
X193974497Y-99611989D01*
X194130749Y-99596600D01*
X194540051Y-99596600D01*
X194696303Y-99611989D01*
X194696303Y-99611989D01*
G37*
G36*
X172575900Y-101307400D02*
G01*
X170675900Y-101307400D01*
X170675900Y-99657400D01*
X172575900Y-99657400D01*
X172575900Y-101307400D01*
X172575900Y-101307400D01*
G37*
G36*
X170075900Y-101307400D02*
G01*
X168175900Y-101307400D01*
X168175900Y-99657400D01*
X170075900Y-99657400D01*
X170075900Y-101307400D01*
X170075900Y-101307400D01*
G37*
G36*
X192469800Y-100189400D02*
G01*
X190569800Y-100189400D01*
X190569800Y-98489400D01*
X192469800Y-98489400D01*
X192469800Y-100189400D01*
X192469800Y-100189400D01*
G37*
G36*
X189769800Y-100189400D02*
G01*
X187869800Y-100189400D01*
X187869800Y-98489400D01*
X189769800Y-98489400D01*
X189769800Y-100189400D01*
X189769800Y-100189400D01*
G37*
G36*
X165752681Y-94420865D02*
G01*
X165871778Y-94432595D01*
X166024589Y-94478950D01*
X166100995Y-94502127D01*
X166156862Y-94531989D01*
X166312242Y-94615041D01*
X166497402Y-94766998D01*
X166649359Y-94952158D01*
X166712423Y-95070143D01*
X166762273Y-95163405D01*
X166762273Y-95163406D01*
X166831805Y-95392622D01*
X166855283Y-95631000D01*
X166831805Y-95869378D01*
X166788086Y-96013500D01*
X166762273Y-96098595D01*
X166746085Y-96128880D01*
X166649359Y-96309842D01*
X166497402Y-96495002D01*
X166312242Y-96646959D01*
X166176040Y-96719760D01*
X166155666Y-96733374D01*
X166138339Y-96750701D01*
X166124725Y-96771076D01*
X166115347Y-96793715D01*
X166110567Y-96817748D01*
X166110567Y-96842252D01*
X166115348Y-96866286D01*
X166124725Y-96888925D01*
X166138339Y-96909299D01*
X166155666Y-96926626D01*
X166176041Y-96940240D01*
X166198680Y-96949618D01*
X166234965Y-96955000D01*
X166849400Y-96955000D01*
X166849400Y-99387000D01*
X164417400Y-99387000D01*
X164417400Y-96955000D01*
X165031835Y-96955000D01*
X165056221Y-96952598D01*
X165079670Y-96945485D01*
X165101281Y-96933934D01*
X165120223Y-96918388D01*
X165135769Y-96899446D01*
X165147320Y-96877835D01*
X165154433Y-96854386D01*
X165156835Y-96830000D01*
X165154433Y-96805614D01*
X165147320Y-96782165D01*
X165135769Y-96760554D01*
X165120223Y-96741612D01*
X165090760Y-96719760D01*
X164954558Y-96646959D01*
X164769398Y-96495002D01*
X164617441Y-96309842D01*
X164520715Y-96128880D01*
X164504527Y-96098595D01*
X164478714Y-96013500D01*
X164434995Y-95869378D01*
X164411517Y-95631000D01*
X164434995Y-95392622D01*
X164504527Y-95163406D01*
X164504527Y-95163405D01*
X164554377Y-95070143D01*
X164617441Y-94952158D01*
X164769398Y-94766998D01*
X164954558Y-94615041D01*
X165109938Y-94531989D01*
X165165805Y-94502127D01*
X165242211Y-94478950D01*
X165395022Y-94432595D01*
X165514119Y-94420865D01*
X165573667Y-94415000D01*
X165693133Y-94415000D01*
X165752681Y-94420865D01*
X165752681Y-94420865D01*
G37*
G36*
X194696303Y-97071989D02*
G01*
X194896791Y-97132807D01*
X195081564Y-97231569D01*
X195243518Y-97364482D01*
X195376431Y-97526436D01*
X195475193Y-97711209D01*
X195536011Y-97911697D01*
X195556546Y-98120200D01*
X195536011Y-98328703D01*
X195475193Y-98529191D01*
X195376431Y-98713964D01*
X195243518Y-98875918D01*
X195081564Y-99008831D01*
X194896791Y-99107593D01*
X194696303Y-99168411D01*
X194540051Y-99183800D01*
X194130749Y-99183800D01*
X193974497Y-99168411D01*
X193774009Y-99107593D01*
X193589236Y-99008831D01*
X193427282Y-98875918D01*
X193294369Y-98713964D01*
X193195607Y-98529191D01*
X193134789Y-98328703D01*
X193114254Y-98120200D01*
X193134789Y-97911697D01*
X193195607Y-97711209D01*
X193294369Y-97526436D01*
X193427282Y-97364482D01*
X193589236Y-97231569D01*
X193774009Y-97132807D01*
X193974497Y-97071989D01*
X194130749Y-97056600D01*
X194540051Y-97056600D01*
X194696303Y-97071989D01*
X194696303Y-97071989D01*
G37*
G36*
X183069600Y-98972400D02*
G01*
X181369600Y-98972400D01*
X181369600Y-97072400D01*
X183069600Y-97072400D01*
X183069600Y-98972400D01*
X183069600Y-98972400D01*
G37*
G36*
X187311400Y-98950800D02*
G01*
X185611400Y-98950800D01*
X185611400Y-97050800D01*
X187311400Y-97050800D01*
X187311400Y-98950800D01*
X187311400Y-98950800D01*
G37*
G36*
X185203200Y-98947000D02*
G01*
X183503200Y-98947000D01*
X183503200Y-97047000D01*
X185203200Y-97047000D01*
X185203200Y-98947000D01*
X185203200Y-98947000D01*
G37*
G36*
X176085000Y-98827000D02*
G01*
X174435000Y-98827000D01*
X174435000Y-96927000D01*
X176085000Y-96927000D01*
X176085000Y-98827000D01*
X176085000Y-98827000D01*
G37*
G36*
X178282100Y-98821600D02*
G01*
X176632100Y-98821600D01*
X176632100Y-96921600D01*
X178282100Y-96921600D01*
X178282100Y-98821600D01*
X178282100Y-98821600D01*
G37*
G36*
X171045640Y-98628880D02*
G01*
X169395640Y-98628880D01*
X169395640Y-96728880D01*
X171045640Y-96728880D01*
X171045640Y-98628880D01*
X171045640Y-98628880D01*
G37*
G36*
X180193163Y-94558849D02*
G01*
X180324478Y-94598683D01*
X180445499Y-94663370D01*
X180551575Y-94750424D01*
X180638629Y-94856500D01*
X180703316Y-94977521D01*
X180713882Y-95012352D01*
X180720912Y-95029325D01*
X180734526Y-95049700D01*
X180751853Y-95067027D01*
X180756600Y-95070199D01*
X180756600Y-98020657D01*
X180742764Y-98032012D01*
X180727218Y-98050954D01*
X180713287Y-98080411D01*
X180703316Y-98113279D01*
X180638629Y-98234300D01*
X180551575Y-98340376D01*
X180445499Y-98427430D01*
X180324478Y-98492117D01*
X180193163Y-98531951D01*
X180056600Y-98545401D01*
X179556600Y-98545401D01*
X179420037Y-98531951D01*
X179288722Y-98492117D01*
X179167701Y-98427430D01*
X179061625Y-98340376D01*
X178974571Y-98234300D01*
X178909884Y-98113279D01*
X178899318Y-98078448D01*
X178892288Y-98061475D01*
X178878674Y-98041100D01*
X178861347Y-98023773D01*
X178856600Y-98020601D01*
X178856600Y-95070143D01*
X178870436Y-95058788D01*
X178885982Y-95039846D01*
X178899913Y-95010389D01*
X178909884Y-94977521D01*
X178974571Y-94856500D01*
X179061625Y-94750424D01*
X179167701Y-94663370D01*
X179288722Y-94598683D01*
X179420037Y-94558849D01*
X179556600Y-94545399D01*
X180056600Y-94545399D01*
X180193163Y-94558849D01*
X180193163Y-94558849D01*
G37*
G36*
X173807300Y-98513500D02*
G01*
X171607300Y-98513500D01*
X171607300Y-97113500D01*
X173807300Y-97113500D01*
X173807300Y-98513500D01*
X173807300Y-98513500D01*
G37*
G36*
X192453280Y-98050720D02*
G01*
X190553280Y-98050720D01*
X190553280Y-96350720D01*
X192453280Y-96350720D01*
X192453280Y-98050720D01*
X192453280Y-98050720D01*
G37*
G36*
X189753280Y-98050720D02*
G01*
X187853280Y-98050720D01*
X187853280Y-96350720D01*
X189753280Y-96350720D01*
X189753280Y-98050720D01*
X189753280Y-98050720D01*
G37*
G36*
X194696303Y-94531989D02*
G01*
X194896791Y-94592807D01*
X195081564Y-94691569D01*
X195243518Y-94824482D01*
X195376431Y-94986436D01*
X195475193Y-95171209D01*
X195536011Y-95371697D01*
X195556546Y-95580200D01*
X195536011Y-95788703D01*
X195475193Y-95989191D01*
X195376431Y-96173964D01*
X195243518Y-96335918D01*
X195081564Y-96468831D01*
X194896791Y-96567593D01*
X194696303Y-96628411D01*
X194540051Y-96643800D01*
X194130749Y-96643800D01*
X193974497Y-96628411D01*
X193774009Y-96567593D01*
X193589236Y-96468831D01*
X193427282Y-96335918D01*
X193294369Y-96173964D01*
X193195607Y-95989191D01*
X193134789Y-95788703D01*
X193114254Y-95580200D01*
X193134789Y-95371697D01*
X193195607Y-95171209D01*
X193294369Y-94986436D01*
X193427282Y-94824482D01*
X193589236Y-94691569D01*
X193774009Y-94592807D01*
X193974497Y-94531989D01*
X194130749Y-94516600D01*
X194540051Y-94516600D01*
X194696303Y-94531989D01*
X194696303Y-94531989D01*
G37*
G36*
X176085000Y-96327000D02*
G01*
X174435000Y-96327000D01*
X174435000Y-94427000D01*
X176085000Y-94427000D01*
X176085000Y-96327000D01*
X176085000Y-96327000D01*
G37*
G36*
X178282100Y-96321600D02*
G01*
X176632100Y-96321600D01*
X176632100Y-94421600D01*
X178282100Y-94421600D01*
X178282100Y-96321600D01*
X178282100Y-96321600D01*
G37*
G36*
X183069600Y-96272400D02*
G01*
X181369600Y-96272400D01*
X181369600Y-94372400D01*
X183069600Y-94372400D01*
X183069600Y-96272400D01*
X183069600Y-96272400D01*
G37*
G36*
X187311400Y-96250800D02*
G01*
X185611400Y-96250800D01*
X185611400Y-94350800D01*
X187311400Y-94350800D01*
X187311400Y-96250800D01*
X187311400Y-96250800D01*
G37*
G36*
X185203200Y-96247000D02*
G01*
X183503200Y-96247000D01*
X183503200Y-94347000D01*
X185203200Y-94347000D01*
X185203200Y-96247000D01*
X185203200Y-96247000D01*
G37*
G36*
X171045640Y-96128880D02*
G01*
X169395640Y-96128880D01*
X169395640Y-94228880D01*
X171045640Y-94228880D01*
X171045640Y-96128880D01*
X171045640Y-96128880D01*
G37*
G36*
X173807300Y-96013500D02*
G01*
X171607300Y-96013500D01*
X171607300Y-94613500D01*
X173807300Y-94613500D01*
X173807300Y-96013500D01*
X173807300Y-96013500D01*
G37*
G36*
X189738040Y-95937440D02*
G01*
X187838040Y-95937440D01*
X187838040Y-94237440D01*
X189738040Y-94237440D01*
X189738040Y-95937440D01*
X189738040Y-95937440D01*
G37*
G36*
X192438040Y-95937440D02*
G01*
X190538040Y-95937440D01*
X190538040Y-94237440D01*
X192438040Y-94237440D01*
X192438040Y-95937440D01*
X192438040Y-95937440D01*
G37*
M02*
