G04 #@! TF.GenerationSoftware,KiCad,Pcbnew,6.0.0-rc1-unknown-1088786~66~ubuntu16.04.1*
G04 #@! TF.CreationDate,2018-12-29T10:22:54+01:00
G04 #@! TF.ProjectId,audi_concert1_chorus1_volume_fix,61756469-5f63-46f6-9e63-657274315f63,rev?*
G04 #@! TF.SameCoordinates,Original*
G04 #@! TF.FileFunction,Paste,Bot*
G04 #@! TF.FilePolarity,Positive*
%FSLAX46Y46*%
G04 Gerber Fmt 4.6, Leading zero omitted, Abs format (unit mm)*
G04 Created by KiCad (PCBNEW 6.0.0-rc1-unknown-1088786~66~ubuntu16.04.1) date So 29. december 2018, 10:22:54 CET*
%MOMM*%
%LPD*%
G04 APERTURE LIST*
%ADD10R,2.032000X0.762000*%
%ADD11R,0.762000X2.032000*%
G04 APERTURE END LIST*
D10*
X170429601Y-105435400D03*
X170429601Y-104165400D03*
X170429601Y-102895400D03*
X170429601Y-101625400D03*
X170429601Y-100355400D03*
X170429601Y-99085400D03*
D11*
X172334601Y-97180400D03*
X173604601Y-97180400D03*
X174874601Y-97180400D03*
X176144601Y-97180400D03*
X177414601Y-97180400D03*
X178684601Y-97180400D03*
X179954601Y-97180400D03*
X181224601Y-97180400D03*
X182494601Y-97180400D03*
X183764601Y-97180400D03*
X185034601Y-97180400D03*
X186304601Y-97180400D03*
X187574601Y-97180400D03*
D10*
X189479601Y-99085400D03*
X189479601Y-100355400D03*
X189479601Y-101625400D03*
X189479601Y-102895400D03*
X189479601Y-104165400D03*
X189479601Y-105435400D03*
X189479601Y-106705400D03*
X189479601Y-107975400D03*
X189479601Y-109245400D03*
X189479601Y-110515400D03*
X189479601Y-111785400D03*
X189479601Y-113055400D03*
X189479601Y-114325400D03*
D11*
X187574601Y-116230400D03*
X186304601Y-116230400D03*
X185034601Y-116230400D03*
X183764601Y-116230400D03*
X182494601Y-116230400D03*
X181224601Y-116230400D03*
X179954601Y-116230400D03*
X178684601Y-116230400D03*
X177414601Y-116230400D03*
X176144601Y-116230400D03*
X174874601Y-116230400D03*
X173604601Y-116230400D03*
X172334601Y-116230400D03*
D10*
X170429601Y-114325400D03*
X170429601Y-113055400D03*
X170429601Y-111785400D03*
X170429601Y-110515400D03*
X170429601Y-109245400D03*
X170429601Y-107975400D03*
X170429601Y-106705400D03*
M02*
